<svg width="32" height="32" viewBox="0 0 32 32" fill="none" xmlns="http://www.w3.org/2000/svg">
<g clip-path="url(#clip0_932_10678)">
<path d="M16.0001 22.6666C16.3779 22.6666 16.6947 22.5386 16.9507 22.2826C17.2067 22.0266 17.3343 21.7102 17.3334 21.3333V16C17.3334 15.6222 17.2054 15.3053 16.9494 15.0493C16.6934 14.7933 16.377 14.6657 16.0001 14.6666C15.6223 14.6666 15.3054 14.7946 15.0494 15.0506C14.7934 15.3066 14.6659 15.6231 14.6667 16V21.3333C14.6667 21.7111 14.7947 22.028 15.0507 22.284C15.3067 22.54 15.6232 22.6675 16.0001 22.6666ZM16.0001 12C16.3779 12 16.6947 11.872 16.9507 11.616C17.2067 11.36 17.3343 11.0435 17.3334 10.6666C17.3334 10.2888 17.2054 9.97196 16.9494 9.71596C16.6934 9.45996 16.377 9.3324 16.0001 9.33329C15.6223 9.33329 15.3054 9.46129 15.0494 9.71729C14.7934 9.97329 14.6659 10.2897 14.6667 10.6666C14.6667 11.0444 14.7947 11.3613 15.0507 11.6173C15.3067 11.8733 15.6232 12.0008 16.0001 12ZM16.0001 29.3333C14.1556 29.3333 12.4223 28.9831 10.8001 28.2826C9.17786 27.5822 7.76675 26.6324 6.56675 25.4333C5.36675 24.2333 4.41697 22.8222 3.71741 21.2C3.01786 19.5777 2.66764 17.8444 2.66675 16C2.66675 14.1555 3.01697 12.4222 3.71741 10.8C4.41786 9.17774 5.36764 7.76663 6.56675 6.56663C7.76675 5.36663 9.17786 4.41685 10.8001 3.71729C12.4223 3.01774 14.1556 2.66751 16.0001 2.66663C17.8445 2.66663 19.5779 3.01685 21.2001 3.71729C22.8223 4.41774 24.2334 5.36752 25.4334 6.56663C26.6334 7.76663 27.5836 9.17774 28.2841 10.8C28.9845 12.4222 29.3343 14.1555 29.3334 16C29.3334 17.8444 28.9832 19.5777 28.2827 21.2C27.5823 22.8222 26.6325 24.2333 25.4334 25.4333C24.2334 26.6333 22.8223 27.5835 21.2001 28.284C19.5779 28.9844 17.8445 29.3342 16.0001 29.3333Z" fill="#3A2635"/>
<path d="M16.0001 22.6666C16.3779 22.6666 16.6947 22.5386 16.9507 22.2826C17.2067 22.0266 17.3343 21.7102 17.3334 21.3333V16C17.3334 15.6222 17.2054 15.3053 16.9494 15.0493C16.6934 14.7933 16.377 14.6657 16.0001 14.6666C15.6223 14.6666 15.3054 14.7946 15.0494 15.0506C14.7934 15.3066 14.6659 15.6231 14.6667 16V21.3333C14.6667 21.7111 14.7947 22.028 15.0507 22.284C15.3067 22.54 15.6232 22.6675 16.0001 22.6666Z" fill="#3A2635"/>
<path d="M16.0001 12C16.3779 12 16.6947 11.872 16.9507 11.616C17.2067 11.36 17.3343 11.0435 17.3334 10.6666C17.3334 10.2888 17.2054 9.97196 16.9494 9.71596C16.6934 9.45996 16.377 9.3324 16.0001 9.33329C15.6223 9.33329 15.3054 9.46129 15.0494 9.71729C14.7934 9.97329 14.6659 10.2897 14.6667 10.6666C14.6667 11.0444 14.7947 11.3613 15.0507 11.6173C15.3067 11.8733 15.6232 12.0008 16.0001 12Z" fill="#3A2635"/>
<path d="M18 10L12 16L18 22" stroke="white" stroke-width="2" stroke-linecap="round"/>
</g>
<defs>
<clipPath id="clip0_932_10678">
<rect width="32" height="32" fill="white"/>
</clipPath>
</defs>
</svg>
