<svg width="32" height="33" viewBox="0 0 32 33" fill="none" xmlns="http://www.w3.org/2000/svg">
<rect y="0.499969" width="32" height="32" rx="16" fill="#3A2635"/>
<path d="M19.275 16.975L15.525 13.2L18.3 10.45L17.575 9.72497L12.1 15.2L10.7 13.8L16.15 8.32497C16.55 7.92497 17.021 7.72497 17.563 7.72497C18.105 7.72497 18.5757 7.92497 18.975 8.32497L19.7 9.04997L20.95 7.79997C21.15 7.59997 21.3877 7.49997 21.663 7.49997C21.9383 7.49997 22.1757 7.59997 22.375 7.79997L24.7 10.125C24.9 10.325 25 10.5626 25 10.838C25 11.1133 24.9 11.3506 24.7 11.55L19.275 16.975ZM10.75 25.5H7V21.75L14.1 14.625L17.875 18.375L10.75 25.5Z" fill="white"/>
</svg>
