<svg width="32" height="32" viewBox="0 0 32 32" fill="none" xmlns="http://www.w3.org/2000/svg">
<rect width="32" height="32" rx="16" fill="#3A2635"/>
<path d="M12.6649 19.7346C12.9099 19.9076 13.2019 19.9996 13.5009 19.9986V19.9946C13.7832 19.9953 14.0595 19.9129 14.2954 19.7579C14.5313 19.6029 14.7165 19.382 14.8279 19.1226L15.4409 17.2586C15.5824 16.8363 15.8203 16.4528 16.1356 16.1383C16.451 15.8238 16.8352 15.587 17.2579 15.4466L19.0359 14.8686C19.3228 14.7685 19.5708 14.5803 19.7444 14.3309C19.918 14.0815 20.0083 13.7836 20.0026 13.4798C19.9968 13.176 19.8952 12.8818 19.7123 12.6391C19.5293 12.3965 19.2744 12.2178 18.9839 12.1286L17.2289 11.5586C16.8044 11.4174 16.4187 11.1791 16.1024 10.8626C15.7861 10.5461 15.548 10.1603 15.4069 9.73565L14.8289 7.95865C14.7281 7.67562 14.5417 7.43102 14.2955 7.25884C14.0493 7.08665 13.7555 6.99543 13.4551 6.99785C13.1547 7.00027 12.8625 7.09621 12.6191 7.27234C12.3757 7.44846 12.1932 7.69603 12.0969 7.98065L11.5139 9.77265C11.3734 10.1849 11.141 10.5599 10.8344 10.8693C10.5278 11.1786 10.1549 11.4144 9.74394 11.5586L7.96694 12.1286C7.68173 12.2273 7.43461 12.4129 7.2603 12.6593C7.086 12.9056 6.99327 13.2004 6.99515 13.5022C6.99702 13.804 7.09341 14.0977 7.27076 14.3418C7.44812 14.586 7.69752 14.7685 7.98394 14.8636L9.73794 15.4326C10.1624 15.5749 10.548 15.8139 10.8642 16.1308C11.1804 16.4477 11.4186 16.8339 11.5599 17.2586L12.1379 19.0336C12.2369 19.3166 12.4209 19.5616 12.6649 19.7346ZM20.3319 24.7816C20.1412 24.6456 19.9979 24.4533 19.9219 24.2316L19.5939 23.2256C19.5309 23.0339 19.4238 22.8595 19.2812 22.7166C19.1387 22.5737 18.9646 22.4661 18.7729 22.4026L17.7819 22.0796C17.5551 22.0031 17.3578 21.8576 17.2178 21.6634C17.0778 21.4692 17.0019 21.2361 17.0009 20.9966C17.0009 20.7587 17.0753 20.5268 17.2135 20.3332C17.3517 20.1396 17.5469 19.9939 17.7719 19.9166L18.7779 19.5906C18.9651 19.5241 19.1345 19.4157 19.2731 19.2735C19.4118 19.1314 19.5161 18.9593 19.5779 18.7706L19.9019 17.7796C19.9782 17.5554 20.1222 17.3604 20.314 17.2215C20.5059 17.0827 20.7362 17.0069 20.973 17.0046C21.2098 17.0023 21.4415 17.0736 21.6361 17.2087C21.8306 17.3438 21.9784 17.5359 22.0589 17.7586L22.3879 18.7726C22.4523 18.9628 22.5598 19.1354 22.7021 19.277C22.8444 19.4185 23.0175 19.5252 23.2079 19.5886L24.1999 19.9116C24.4286 19.9832 24.629 20.1249 24.7726 20.3166C24.9162 20.5084 24.9959 20.7405 25.0002 20.9801C25.0045 21.2196 24.9333 21.4545 24.7967 21.6513C24.66 21.8481 24.4649 21.9969 24.2389 22.0766L23.2249 22.4056C23.0343 22.47 22.8611 22.5777 22.7192 22.7204C22.5773 22.863 22.4704 23.0367 22.4069 23.2276L22.0849 24.2166C22.0069 24.4466 21.8589 24.6466 21.6599 24.7866C21.4658 24.9246 21.2333 24.9984 20.9951 24.9975C20.7569 24.9966 20.525 24.9211 20.3319 24.7816Z" fill="white"/>
</svg>
