<svg width="32" height="33" viewBox="0 0 32 33" fill="none" xmlns="http://www.w3.org/2000/svg">
<rect y="0.5" width="32" height="32" rx="16" fill="#3A2635"/>
<path d="M9 25.5C8.45 25.5 7.979 25.304 7.587 24.912C7.195 24.52 6.99934 24.0493 7 23.5V9.5C7 8.95 7.196 8.479 7.588 8.087C7.98 7.695 8.45067 7.49934 9 7.5H23C23.55 7.5 24.021 7.696 24.413 8.088C24.805 8.48 25.0007 8.95067 25 9.5V23.5C25 24.05 24.804 24.521 24.412 24.913C24.02 25.305 23.5493 25.5007 23 25.5H9ZM10 21.5H22L18.25 16.5L15.25 20.5L13 17.5L10 21.5ZM12.5 14.5C12.9167 14.5 13.271 14.354 13.563 14.062C13.855 13.77 14.0007 13.416 14 13C14 12.5833 13.854 12.229 13.562 11.937C13.27 11.645 12.916 11.4993 12.5 11.5C12.0833 11.5 11.729 11.646 11.437 11.938C11.145 12.23 10.9993 12.584 11 13C11 13.4167 11.146 13.771 11.438 14.063C11.73 14.355 12.084 14.5007 12.5 14.5Z" fill="white"/>
</svg>
