<svg width="24" height="24" viewBox="0 0 24 24" fill="none" xmlns="http://www.w3.org/2000/svg">
<circle cx="12" cy="12" r="12" fill="#3A2635"/>
<path d="M11.3197 17.4314C11.5426 18.5151 11.3643 18.5643 10.7845 18.6136C9.71421 18.8107 9.58038 18.4165 9.58038 18.121C9.53578 16.1507 10.6061 14.9685 11.1413 14.3282C11.6764 13.6879 11.6764 13.3923 10.7845 14.3282C9.89257 15.2642 5.07616 16.9388 5.34374 12.5549C5.61132 8.17108 8.06412 10.0921 9.04524 10.6831C10.0264 11.2742 9.71419 10.7324 9.22363 10.2891C8.73307 9.84578 6.05728 6.8411 10.3385 5.56041C14.6198 4.27973 13.4603 8.81138 13.4157 9.30397C13.3711 9.79656 13.4603 11.422 13.7725 9.30397C14.0846 7.18592 16.5374 4.18123 18.2321 8.61437C19.9268 13.0475 16.1361 12.5057 15.8239 12.5549C15.5117 12.6042 14.5752 12.6535 15.8239 12.9983C17.0726 13.3431 17.5632 14.0327 17.6523 15.1656C17.7415 16.2985 16.8942 18.121 14.932 18.121C12.9697 18.121 12.5238 16.4955 12.5238 15.1656C12.5238 13.8357 12.3454 14.0327 12.1224 14.3282C11.8994 14.6238 11.0967 16.3478 11.3197 17.4314Z" fill="white"/>
</svg>
