<svg width="32" height="33" viewBox="0 0 32 33" fill="none" xmlns="http://www.w3.org/2000/svg">
<rect y="0.499969" width="32" height="32" rx="16" fill="#3A2635"/>
<path d="M16 21.5C16.2833 21.5 16.521 21.404 16.713 21.212C16.905 21.02 17.0007 20.7826 17 20.5V16.5C17 16.2166 16.904 15.979 16.712 15.787C16.52 15.595 16.2827 15.4993 16 15.5C15.7167 15.5 15.479 15.596 15.287 15.788C15.095 15.98 14.9993 16.2173 15 16.5V20.5C15 20.7833 15.096 21.021 15.288 21.213C15.48 21.405 15.7173 21.5006 16 21.5ZM16 13.5C16.2833 13.5 16.521 13.404 16.713 13.212C16.905 13.02 17.0007 12.7826 17 12.5C17 12.2166 16.904 11.979 16.712 11.787C16.52 11.595 16.2827 11.4993 16 11.5C15.7167 11.5 15.479 11.596 15.287 11.788C15.095 11.98 14.9993 12.2173 15 12.5C15 12.7833 15.096 13.021 15.288 13.213C15.48 13.405 15.7173 13.5006 16 13.5ZM16 26.5C14.6167 26.5 13.3167 26.2373 12.1 25.712C10.8833 25.1866 9.825 24.4743 8.925 23.575C8.025 22.675 7.31267 21.6166 6.788 20.4C6.26333 19.1833 6.00067 17.8833 6 16.5C6 15.1166 6.26267 13.8166 6.788 12.6C7.31333 11.3833 8.02567 10.325 8.925 9.42497C9.825 8.52497 10.8833 7.81264 12.1 7.28797C13.3167 6.7633 14.6167 6.50064 16 6.49997C17.3833 6.49997 18.6833 6.76264 19.9 7.28797C21.1167 7.8133 22.175 8.52564 23.075 9.42497C23.975 10.325 24.6877 11.3833 25.213 12.6C25.7383 13.8166 26.0007 15.1166 26 16.5C26 17.8833 25.7373 19.1833 25.212 20.4C24.6867 21.6166 23.9743 22.675 23.075 23.575C22.175 24.475 21.1167 25.1876 19.9 25.713C18.6833 26.2383 17.3833 26.5006 16 26.5Z" fill="white"/>
</svg>
