<svg width="32" height="33" viewBox="0 0 32 33" fill="none" xmlns="http://www.w3.org/2000/svg">
<rect y="0.5" width="32" height="32" rx="16" fill="#3A2635"/>
<path d="M12.1 19.25C12.3333 20.05 12.696 20.696 13.188 21.188C13.68 21.68 14.3173 22.0173 15.1 22.2V22.625C15.1 22.8583 15.1877 23.0627 15.363 23.238C15.5383 23.4133 15.7423 23.5007 15.975 23.5C16.2083 23.5 16.4127 23.4123 16.588 23.237C16.7633 23.0617 16.8507 22.8577 16.85 22.625V22.25C17.6833 22.1 18.4 21.775 19 21.275C19.6 20.775 19.9 20.0333 19.9 19.05C19.9 18.35 19.7 17.7083 19.3 17.125C18.9 16.5417 18.1 16.0333 16.9 15.6C15.9 15.2667 15.2083 14.975 14.825 14.725C14.4417 14.475 14.25 14.1333 14.25 13.7C14.25 13.2667 14.4043 12.925 14.713 12.675C15.0217 12.425 15.4673 12.3 16.05 12.3C16.5833 12.3 17 12.429 17.3 12.687C17.6 12.945 17.8167 13.266 17.95 13.65L19.55 13C19.3667 12.4167 19.0293 11.9083 18.538 11.475C18.0467 11.0417 17.5007 10.8 16.9 10.75V10.375C16.9 10.1417 16.8123 9.93733 16.637 9.762C16.4617 9.58667 16.258 9.49933 16.026 9.5C15.7927 9.5 15.5883 9.58767 15.413 9.763C15.2377 9.93833 15.1503 10.1423 15.151 10.375V10.75C14.3177 10.9333 13.6677 11.3 13.201 11.85C12.7343 12.4 12.5007 13.0167 12.5 13.7C12.5 14.4833 12.7293 15.1167 13.188 15.6C13.6467 16.0833 14.3673 16.5 15.35 16.85C16.4 17.2333 17.1293 17.575 17.538 17.875C17.9467 18.175 18.1507 18.5667 18.15 19.05C18.15 19.6 17.954 20.0043 17.562 20.263C17.17 20.5217 16.6993 20.6507 16.15 20.65C15.6 20.65 15.1123 20.4793 14.687 20.138C14.2617 19.7967 13.9493 19.284 13.75 18.6L12.1 19.25ZM16 26.5C14.6167 26.5 13.3167 26.2373 12.1 25.712C10.8833 25.1867 9.825 24.4743 8.925 23.575C8.025 22.675 7.31267 21.6167 6.788 20.4C6.26333 19.1833 6.00067 17.8833 6 16.5C6 15.1167 6.26267 13.8167 6.788 12.6C7.31333 11.3833 8.02567 10.325 8.925 9.425C9.825 8.525 10.8833 7.81267 12.1 7.288C13.3167 6.76333 14.6167 6.50067 16 6.5C17.3833 6.5 18.6833 6.76267 19.9 7.288C21.1167 7.81333 22.175 8.52567 23.075 9.425C23.975 10.325 24.6877 11.3833 25.213 12.6C25.7383 13.8167 26.0007 15.1167 26 16.5C26 17.8833 25.7373 19.1833 25.212 20.4C24.6867 21.6167 23.9743 22.675 23.075 23.575C22.175 24.475 21.1167 25.1877 19.9 25.713C18.6833 26.2383 17.3833 26.5007 16 26.5Z" fill="white"/>
</svg>
