<svg width="24" height="24" viewBox="0 0 24 24" fill="none" xmlns="http://www.w3.org/2000/svg">
<circle cx="12" cy="12" r="12" fill="#3A2635"/>
<path d="M14.0657 18C12.5736 18 12.4078 16.5357 12.4078 16.1004V7.71053C12.4078 6.56287 12.6151 5.91568 13.9414 6.00882C14.9601 6.08036 15.1295 6.94542 15.1019 7.2752C15.392 7.18286 16.0917 7.16347 16.6769 7.71053C17.3815 8.36929 17.3539 8.97692 17.1742 9.45182C17.6716 9.58373 18.6663 10.1167 18.6663 11.1931C18.6663 12.2695 18.0585 12.7761 17.7545 12.8948C18.169 13.2766 18.5379 13.9921 18.0861 14.9783C17.5058 16.2447 16.4696 16.1004 15.9723 16.1004C15.9723 17.0502 15.5578 18 14.0657 18Z" fill="white"/>
<path d="M9.93363 18C11.4257 18 11.5915 16.5357 11.5915 16.1004V7.71053C11.5915 6.56287 11.3843 5.91568 10.058 6.00882C9.03927 6.08036 8.86982 6.94542 8.89745 7.2752C8.60732 7.18286 7.9076 7.16347 7.32247 7.71053C6.61787 8.36929 6.6455 8.97692 6.8251 9.45182C6.32774 9.58373 5.33301 10.1167 5.33301 11.1931C5.33301 12.2695 5.9409 12.7761 6.24484 12.8948C5.83037 13.2766 5.4614 13.9921 5.91327 14.9783C6.49352 16.2447 7.5297 16.1004 8.02707 16.1004C8.02707 17.0502 8.44154 18 9.93363 18Z" fill="white"/>
</svg>
