<svg width="25" height="24" viewBox="0 0 25 24" fill="none" xmlns="http://www.w3.org/2000/svg">
<circle cx="12.333" cy="12" r="12" fill="#3A2635"/>
<path d="M12.3333 18.6C12.2556 18.6 12.1833 18.5945 12.1167 18.5834C12.05 18.5722 11.9833 18.5556 11.9167 18.5333C10.4167 18.0333 9.22222 17.1085 8.33333 15.7587C7.44444 14.4089 7 12.956 7 11.4V8.25002C7 7.97224 7.08067 7.72224 7.242 7.50002C7.40333 7.27779 7.61156 7.11668 7.86667 7.01668L11.8667 5.51668C12.0222 5.46113 12.1778 5.43335 12.3333 5.43335C12.4889 5.43335 12.6444 5.46113 12.8 5.51668L16.8 7.01668C17.0556 7.11668 17.264 7.27779 17.4253 7.50002C17.5867 7.72224 17.6671 7.97224 17.6667 8.25002V11.4C17.6667 12.9556 17.2222 14.4085 16.3333 15.7587C15.4444 17.1089 14.25 18.0338 12.75 18.5333C12.6833 18.5556 12.6167 18.5722 12.55 18.5834C12.4833 18.5945 12.4111 18.6 12.3333 18.6Z" fill="white"/>
</svg>
