<svg width="25" height="24" viewBox="0 0 25 24" fill="none" xmlns="http://www.w3.org/2000/svg">
<circle cx="12.667" cy="12" r="12" fill="#3A2635"/>
<path d="M12.6673 15.4L14.8007 12.3333H12.9007L14.234 7.66665H10.6673V13H12.6673V15.4ZM16.2507 12.5666L12.2507 18.35C12.184 18.45 12.0978 18.5166 11.992 18.55C11.8862 18.5833 11.7835 18.5833 11.684 18.55C11.584 18.5166 11.5007 18.4584 11.434 18.3753C11.3673 18.2922 11.334 18.1893 11.334 18.0666V14.3333H10.6673C10.3007 14.3333 9.98665 14.2026 9.72532 13.9413C9.46399 13.68 9.33354 13.3662 9.33399 13V7.66665C9.33399 7.29998 9.46465 6.98598 9.72599 6.72465C9.98732 6.46331 10.3011 6.33287 10.6673 6.33331H14.5673C14.9229 6.33331 15.2091 6.4722 15.426 6.74998C15.6429 7.02776 15.7067 7.33331 15.6173 7.66665L14.6673 11H15.4173C15.8173 11 16.1147 11.1778 16.3093 11.5333C16.504 11.8889 16.4844 12.2333 16.2507 12.5666Z" fill="white"/>
<path d="M12.6673 15.4L14.8007 12.3333H12.9007L14.234 7.66665H10.6673V13H12.6673V15.4Z" fill="white"/>
</svg>
