<svg width="32" height="33" viewBox="0 0 32 33" fill="none" xmlns="http://www.w3.org/2000/svg">
<rect y="0.5" width="32" height="32" rx="16" fill="#3A2635"/>
<path d="M16 17.5C15.7167 17.5 15.479 17.404 15.287 17.212C15.095 17.02 14.9993 16.7827 15 16.5C15 16.2167 15.096 15.979 15.288 15.787C15.48 15.595 15.7173 15.4993 16 15.5C16.2833 15.5 16.521 15.596 16.713 15.788C16.905 15.98 17.0007 16.2173 17 16.5C17 16.7833 16.904 17.021 16.712 17.213C16.52 17.405 16.2827 17.5007 16 17.5ZM16 26.5C14.6167 26.5 13.3167 26.2373 12.1 25.712C10.8833 25.1867 9.825 24.4743 8.925 23.575C8.025 22.675 7.31267 21.6167 6.788 20.4C6.26333 19.1833 6.00067 17.8833 6 16.5C6 15.1167 6.26267 13.8167 6.788 12.6C7.31333 11.3833 8.02567 10.325 8.925 9.425C9.825 8.525 10.8833 7.81267 12.1 7.288C13.3167 6.76333 14.6167 6.50067 16 6.5C17.3833 6.5 18.6833 6.76267 19.9 7.288C21.1167 7.81333 22.175 8.52567 23.075 9.425C23.975 10.325 24.6877 11.3833 25.213 12.6C25.7383 13.8167 26.0007 15.1167 26 16.5C26 17.8833 25.7373 19.1833 25.212 20.4C24.6867 21.6167 23.9743 22.675 23.075 23.575C22.175 24.475 21.1167 25.1877 19.9 25.713C18.6833 26.2383 17.3833 26.5007 16 26.5ZM16 24.5C18.2333 24.5 20.125 23.725 21.675 22.175C23.225 20.625 24 18.7333 24 16.5C24 14.2667 23.225 12.375 21.675 10.825C20.125 9.275 18.2333 8.5 16 8.5C13.7667 8.5 11.875 9.275 10.325 10.825C8.775 12.375 8 14.2667 8 16.5C8 18.7333 8.775 20.625 10.325 22.175C11.875 23.725 13.7667 24.5 16 24.5ZM16 24.5C13.7667 24.5 11.875 23.725 10.325 22.175C8.775 20.625 8 18.7333 8 16.5C8 14.2667 8.775 12.375 10.325 10.825C11.875 9.275 13.7667 8.5 16 8.5C18.2333 8.5 20.125 9.275 21.675 10.825C23.225 12.375 24 14.2667 24 16.5C24 18.7333 23.225 20.625 21.675 22.175C20.125 23.725 18.2333 24.5 16 24.5ZM17.675 18.65C17.775 18.6 17.8667 18.5333 17.95 18.45C18.0333 18.3667 18.1 18.275 18.15 18.175L21.075 11.925C21.1583 11.7583 21.1373 11.6123 21.012 11.487C20.8867 11.3617 20.741 11.341 20.575 11.425L14.325 14.35C14.225 14.4 14.1333 14.4667 14.05 14.55C13.9667 14.6333 13.9 14.725 13.85 14.825L10.925 21.075C10.8417 21.2417 10.8627 21.3877 10.988 21.513C11.1133 21.6383 11.259 21.659 11.425 21.575L17.675 18.65Z" fill="white"/>
</svg>
