<svg width="16" height="16" viewBox="0 0 16 16" fill="none" xmlns="http://www.w3.org/2000/svg">
<path d="M7.3199 13.4314C7.54288 14.515 7.3645 14.5643 6.78475 14.6135C5.71445 14.8106 5.58062 14.4165 5.58062 14.1209C5.53603 12.1507 6.60634 10.9685 7.1415 10.3282C7.67665 9.68787 7.67667 9.39223 6.78475 10.3282C5.89282 11.2641 1.07641 12.9387 1.34398 8.55488C1.61156 4.17102 4.06436 6.092 5.04549 6.68309C6.02661 7.27417 5.71443 6.73235 5.22387 6.28903C4.73331 5.84572 2.05753 2.84104 6.33878 1.56035C10.62 0.279667 9.46053 4.81132 9.41593 5.30391C9.37134 5.7965 9.46053 7.42197 9.77271 5.30391C10.0849 3.18585 12.5377 0.181168 14.2323 4.61431C15.927 9.04745 12.1363 8.50563 11.8241 8.55488C11.512 8.60414 10.5754 8.6534 11.8241 8.9982C13.0728 9.343 13.5634 10.0326 13.6526 11.1655C13.7418 12.2985 12.8945 14.1209 10.9322 14.1209C8.96997 14.1209 8.52401 12.4955 8.52401 11.1655C8.52401 9.83559 8.34562 10.0326 8.12264 10.3282C7.89966 10.6237 7.09692 12.3477 7.3199 13.4314Z" fill="url(#paint0_radial_601_12090)"/>
<defs>
<radialGradient id="paint0_radial_601_12090" cx="0" cy="0" r="1" gradientUnits="userSpaceOnUse" gradientTransform="translate(7.99992 7.99992) rotate(90) scale(6.66667)">
<stop stop-color="#97F7EF"/>
<stop offset="1" stop-color="#6CD1FD"/>
</radialGradient>
</defs>
</svg>
