<svg width="16" height="16" viewBox="0 0 16 16" fill="none" xmlns="http://www.w3.org/2000/svg">
<path d="M10.0661 14C8.57399 14 8.4082 12.5357 8.4082 12.1004V3.71057C8.4082 2.5629 8.61544 1.91571 9.94174 2.00885C10.9604 2.08039 11.1299 2.94545 11.1023 3.27523C11.3924 3.18289 12.0921 3.1635 12.6772 3.71057C13.3818 4.36932 13.3542 4.97695 13.1746 5.45185C13.672 5.58376 14.6667 6.1167 14.6667 7.19314C14.6667 8.26957 14.0588 8.77613 13.7549 8.89485C14.1693 9.27662 14.5383 9.99215 14.0864 10.9783C13.5062 12.2447 12.47 12.1004 11.9726 12.1004C11.9726 13.0502 11.5582 14 10.0661 14Z" fill="url(#paint0_radial_30704_4322)"/>
<path d="M5.934 14C7.42609 14 7.59188 12.5357 7.59188 12.1004V3.71057C7.59188 2.5629 7.38464 1.91571 6.05834 2.00885C5.03964 2.08039 4.87019 2.94545 4.89782 3.27523C4.60769 3.18289 3.90797 3.1635 3.32283 3.71057C2.61823 4.36932 2.64586 4.97695 2.82547 5.45185C2.3281 5.58376 1.33337 6.1167 1.33337 7.19314C1.33337 8.26957 1.94126 8.77613 2.24521 8.89485C1.83074 9.27662 1.46177 9.99215 1.91363 10.9783C2.49389 12.2447 3.53007 12.1004 4.02743 12.1004C4.02743 13.0502 4.4419 14 5.934 14Z" fill="url(#paint1_radial_30704_4322)"/>
<defs>
<radialGradient id="paint0_radial_30704_4322" cx="0" cy="0" r="1" gradientUnits="userSpaceOnUse" gradientTransform="translate(8.00004 8) rotate(90) scale(6 6.66667)">
<stop stop-color="#9AFAEF"/>
<stop offset="1" stop-color="#6CD1FD"/>
</radialGradient>
<radialGradient id="paint1_radial_30704_4322" cx="0" cy="0" r="1" gradientUnits="userSpaceOnUse" gradientTransform="translate(8.00004 8) rotate(90) scale(6 6.66667)">
<stop stop-color="#9AFAEF"/>
<stop offset="1" stop-color="#6CD1FD"/>
</radialGradient>
</defs>
</svg>
