<svg width="8" height="13" viewBox="0 0 8 13" fill="none" xmlns="http://www.w3.org/2000/svg">
<path fill-rule="evenodd" clip-rule="evenodd" d="M3.58342 12.3499L7.58342 6.56659C7.81719 6.23325 7.83675 5.88881 7.64208 5.53325C7.44742 5.1777 7.15008 4.99992 6.75008 4.99992H6.00008L6.95008 1.66659C7.03942 1.33325 6.97564 1.0277 6.75875 0.74992C6.54186 0.472142 6.25564 0.333253 5.90008 0.333253H2.00008C1.63386 0.332809 1.32008 0.463253 1.05875 0.724586C0.797416 0.98592 0.666749 1.29992 0.666749 1.66659V6.99992C0.666305 7.36614 0.796749 7.67992 1.05808 7.94125C1.31942 8.20259 1.63342 8.33325 2.00008 8.33325H2.66675V12.0666C2.66675 12.1893 2.70008 12.2921 2.76675 12.3753C2.83342 12.4584 2.91675 12.5166 3.01675 12.5499C3.1163 12.5833 3.21897 12.5833 3.32475 12.5499C3.43053 12.5166 3.51675 12.4499 3.58342 12.3499Z" fill="url(#paint0_radial_1181_14819)"/>
<defs>
<radialGradient id="paint0_radial_1181_14819" cx="0" cy="0" r="1" gradientUnits="userSpaceOnUse" gradientTransform="translate(4.22067 6.454) rotate(90) scale(6.12083 3.554)">
<stop stop-color="#9BFBEF"/>
<stop offset="1" stop-color="#6CD1FD"/>
</radialGradient>
</defs>
</svg>
