<svg width="8" height="13" viewBox="0 0 8 13" fill="none" xmlns="http://www.w3.org/2000/svg">
<path d="M4.00008 9.39992L6.13342 6.33325H4.23342L5.56675 1.66659H2.00008V6.99992H4.00008V9.39992ZM7.58342 6.56659L3.58342 12.3499C3.51675 12.4499 3.43053 12.5166 3.32475 12.5499C3.21897 12.5833 3.1163 12.5833 3.01675 12.5499C2.91675 12.5166 2.83342 12.4584 2.76675 12.3753C2.70008 12.2921 2.66675 12.1893 2.66675 12.0666V8.33325H2.00008C1.63342 8.33325 1.31942 8.20259 1.05808 7.94125C0.796749 7.67992 0.666305 7.36614 0.666749 6.99992V1.66659C0.666749 1.29992 0.797416 0.98592 1.05875 0.724586C1.32008 0.463253 1.63386 0.332809 2.00008 0.333253H5.90008C6.25564 0.333253 6.54186 0.472142 6.75875 0.74992C6.97564 1.0277 7.03942 1.33325 6.95008 1.66659L6.00008 4.99992H6.75008C7.15008 4.99992 7.44742 5.1777 7.64208 5.53325C7.83675 5.88881 7.81719 6.23325 7.58342 6.56659Z" fill="#3A2635"/>
<path d="M4.00008 9.39992L6.13342 6.33325H4.23342L5.56675 1.66659H2.00008V6.99992H4.00008V9.39992ZM7.58342 6.56659L3.58342 12.3499C3.51675 12.4499 3.43053 12.5166 3.32475 12.5499C3.21897 12.5833 3.1163 12.5833 3.01675 12.5499C2.91675 12.5166 2.83342 12.4584 2.76675 12.3753C2.70008 12.2921 2.66675 12.1893 2.66675 12.0666V8.33325H2.00008C1.63342 8.33325 1.31942 8.20259 1.05808 7.94125C0.796749 7.67992 0.666305 7.36614 0.666749 6.99992V1.66659C0.666749 1.29992 0.797416 0.98592 1.05875 0.724586C1.32008 0.463253 1.63386 0.332809 2.00008 0.333253H5.90008C6.25564 0.333253 6.54186 0.472142 6.75875 0.74992C6.97564 1.0277 7.03942 1.33325 6.95008 1.66659L6.00008 4.99992H6.75008C7.15008 4.99992 7.44742 5.1777 7.64208 5.53325C7.83675 5.88881 7.81719 6.23325 7.58342 6.56659Z" fill="url(#paint0_radial_601_12063)"/>
<path d="M4.00008 9.39992L6.13342 6.33325H4.23342L5.56675 1.66659H2.00008V6.99992H4.00008V9.39992Z" fill="#3A2635"/>
<path d="M4.00008 9.39992L6.13342 6.33325H4.23342L5.56675 1.66659H2.00008V6.99992H4.00008V9.39992Z" fill="url(#paint1_radial_601_12063)"/>
<defs>
<radialGradient id="paint0_radial_601_12063" cx="0" cy="0" r="1" gradientUnits="userSpaceOnUse" gradientTransform="translate(4.22075 6.45409) rotate(90) scale(6.12083 3.554)">
<stop stop-color="#9BFBEF"/>
<stop offset="1" stop-color="#6CD1FD"/>
</radialGradient>
<radialGradient id="paint1_radial_601_12063" cx="0" cy="0" r="1" gradientUnits="userSpaceOnUse" gradientTransform="translate(4.22075 6.45409) rotate(90) scale(6.12083 3.554)">
<stop stop-color="#9BFBEF"/>
<stop offset="1" stop-color="#6CD1FD"/>
</radialGradient>
</defs>
</svg>
