<svg width="16" height="16" viewBox="0 0 16 16" fill="none" xmlns="http://www.w3.org/2000/svg">
<path d="M8.00008 14.6C7.9223 14.6 7.85008 14.5945 7.78341 14.5834C7.71675 14.5722 7.65008 14.5556 7.58342 14.5333C6.08341 14.0333 4.88897 13.1085 4.00008 11.7587C3.11119 10.4089 2.66675 8.95602 2.66675 7.40002V4.25002C2.66675 3.97224 2.74741 3.72224 2.90875 3.50002C3.07008 3.27779 3.2783 3.11668 3.53341 3.01668L7.53341 1.51668C7.68897 1.46113 7.84453 1.43335 8.00008 1.43335C8.15564 1.43335 8.31119 1.46113 8.46675 1.51668L12.4667 3.01668C12.7223 3.11668 12.9307 3.27779 13.0921 3.50002C13.2534 3.72224 13.3339 3.97224 13.3334 4.25002V7.40002C13.3334 8.95557 12.889 10.4085 12.0001 11.7587C11.1112 13.1089 9.91675 14.0338 8.41675 14.5333C8.35008 14.5556 8.28341 14.5722 8.21675 14.5834C8.15008 14.5945 8.07786 14.6 8.00008 14.6Z" fill="url(#paint0_radial_601_12076)"/>
<defs>
<radialGradient id="paint0_radial_601_12076" cx="0" cy="0" r="1" gradientUnits="userSpaceOnUse" gradientTransform="translate(8.00008 8.01668) rotate(90) scale(6.58333 5.33333)">
<stop stop-color="#9BFBEF"/>
<stop offset="1" stop-color="#6CD1FD"/>
</radialGradient>
</defs>
</svg>
