<svg width="48" height="48" viewBox="0 0 48 48" fill="none" xmlns="http://www.w3.org/2000/svg">
<path fill-rule="evenodd" clip-rule="evenodd" d="M36.146 19.0388C37.0168 16.9324 36.0152 14.5188 33.9088 13.648C31.8024 12.7771 29.3889 13.7788 28.518 15.8852L20.1927 36.0224C19.3219 38.1288 20.3235 40.5424 22.4299 41.4132C24.5363 42.2841 26.9498 41.2824 27.8207 39.176L36.146 19.0388ZM24.5489 35.4617L25.3111 35.7768L25.6179 35.9036C26.1978 36.1434 26.4735 36.8079 26.2338 37.3878C25.994 37.9677 25.3296 38.2435 24.7496 38.0037L24.4428 37.8769L23.6807 37.5618L23.3739 37.435C22.794 37.1952 22.5182 36.5307 22.758 35.9508C22.9977 35.3709 23.6622 35.0951 24.2421 35.3349L24.5489 35.4617ZM24.8474 35.819C25.0121 36.1218 25.0436 36.4937 24.9017 36.8371C24.7597 37.1804 24.4748 37.4214 24.1443 37.5196C23.9797 37.2167 23.9481 36.8449 24.0901 36.5015C24.2321 36.1582 24.517 35.9172 24.8474 35.819ZM32.8354 17.5764L32.0732 17.2613L31.7665 17.1344C31.1865 16.8947 30.5221 17.1704 30.2823 17.7504C30.0426 18.3303 30.3183 18.9948 30.8982 19.2345L31.205 19.3613L31.9672 19.6764L32.274 19.8033C32.8539 20.043 33.5184 19.7673 33.7581 19.1874C33.9979 18.6074 33.7221 17.943 33.1422 17.7032L32.8354 17.5764ZM32.426 18.6366C32.568 18.2932 32.5364 17.9214 32.3717 17.6186C32.0413 17.7167 31.7564 17.9577 31.6144 18.3011C31.4725 18.6445 31.504 19.0163 31.6687 19.3191C31.9991 19.221 32.284 18.98 32.426 18.6366Z" fill="white"/>
<path d="M12.7715 32.7286L14.548 34.9315C16.2 36.98 19.4404 36.5239 20.4627 34.0989L28.8952 14.0961C29.4192 12.8532 29.1776 11.4194 28.2753 10.4168L26.2193 8.13239C24.5004 6.22252 21.3755 6.77052 20.409 9.1513L12.256 29.2356C11.7804 30.4071 11.9778 31.7444 12.7715 32.7286Z" fill="white"/>
<path d="M30.0221 11.5225L37.0071 14.4777L30.8281 9.37326L24.1118 5.34348L30.0221 11.5225Z" fill="white"/>
</svg>
