<svg width="20" height="17" viewBox="0 0 20 17" fill="none" xmlns="http://www.w3.org/2000/svg">
<g id="Library">
<g id="Group 2">
<path id="Subtract" fill-rule="evenodd" clip-rule="evenodd" d="M0 3.45201C0 2.66303 0.639593 2.02344 1.42857 2.02344H4.05791C4.84689 2.02344 5.48648 2.66303 5.48648 3.45201V14.7603C5.48648 15.5493 4.84688 16.1889 4.05791 16.1889H1.42857C0.639592 16.1889 0 15.5493 0 14.7603V3.45201ZM1.96429 13.2141C1.66842 13.2141 1.42857 13.4539 1.42857 13.7498C1.42857 14.0456 1.66842 14.2855 1.96429 14.2855H3.39286C3.68872 14.2855 3.92857 14.0456 3.92857 13.7498C3.92857 13.4539 3.68872 13.2141 3.39286 13.2141H1.96429ZM1.42857 4.46406C1.42857 4.16819 1.66842 3.92834 1.96429 3.92834H3.39286C3.68872 3.92834 3.92857 4.16819 3.92857 4.46406C3.92857 4.75993 3.68872 4.99977 3.39286 4.99977H1.96429C1.66842 4.99977 1.42857 4.75993 1.42857 4.46406Z" fill="#FFD69D"/>
</g>
<g id="Group 3">
<path id="Subtract_2" fill-rule="evenodd" clip-rule="evenodd" d="M11.442 4.22853C11.2378 3.46643 11.6901 2.68309 12.4522 2.47889L14.9919 1.79837C15.754 1.59417 16.5373 2.04643 16.7415 2.80852L19.6683 13.7315C19.8726 14.4936 19.4203 15.277 18.6582 15.4812L16.1185 16.1617C15.3564 16.3659 14.573 15.9136 14.3688 15.1515L11.442 4.22853ZM15.8659 13.1495C15.5802 13.2261 15.4106 13.5198 15.4871 13.8056C15.5637 14.0914 15.8575 14.261 16.1432 14.1844L17.5231 13.8147C17.8089 13.7381 17.9785 13.4444 17.9019 13.1586C17.8254 12.8728 17.5316 12.7032 17.2458 12.7798L15.8659 13.1495ZM13.0838 4.83634C13.0073 4.55056 13.1768 4.25681 13.4626 4.18023L14.8425 3.81049C15.1283 3.73391 15.4221 3.90351 15.4986 4.1893C15.5752 4.47508 15.4056 4.76883 15.1198 4.84541L13.7399 5.21515C13.4542 5.29173 13.1604 5.12213 13.0838 4.83634Z" fill="#FFD69D"/>
</g>
<g id="Group 1">
<path id="Subtract_3" fill-rule="evenodd" clip-rule="evenodd" d="M7.60045 0C6.81147 0 6.17188 0.639593 6.17188 1.42857V14.7605C6.17188 15.5495 6.81147 16.1891 7.60045 16.1891H10.2298C11.0188 16.1891 11.6584 15.5495 11.6584 14.7605V1.42857C11.6584 0.639593 11.0188 0 10.2298 0H7.60045ZM7.49956 2.32143C7.49956 2.02556 7.73941 1.78571 8.03528 1.78571H9.82099C10.1169 1.78571 10.3567 2.02556 10.3567 2.32143C10.3567 2.6173 10.1169 2.85714 9.82099 2.85714H8.03528C7.73941 2.85714 7.49956 2.6173 7.49956 2.32143ZM8.03528 7.5C7.73941 7.5 7.49956 7.73985 7.49956 8.03571C7.49956 8.33158 7.73941 8.57143 8.03528 8.57143H9.82099C10.1169 8.57143 10.3567 8.33158 10.3567 8.03571C10.3567 7.73985 10.1169 7.5 9.82099 7.5H8.03528ZM7.49956 14.1071C7.49956 13.8113 7.73941 13.5714 8.03528 13.5714H9.82099C10.1169 13.5714 10.3567 13.8113 10.3567 14.1071C10.3567 14.403 10.1169 14.6429 9.82099 14.6429H8.03528C7.73941 14.6429 7.49956 14.403 7.49956 14.1071Z" fill="#FFD69D"/>
</g>
</g>
</svg>
