<svg width="20" height="17" viewBox="0 0 20 17" fill="none" xmlns="http://www.w3.org/2000/svg">
<g id="Library">
<g id="Group 2">
<rect id="Rectangle 76" x="1.69559" y="13.4817" width="1.96429" height="0.535712" rx="0.267856" stroke="#FFD69D" stroke-width="0.535712"/>
<rect id="Rectangle 80" x="1.69559" y="4.19608" width="1.96429" height="0.535712" rx="0.267856" stroke="#FFD69D" stroke-width="0.535712"/>
<rect id="Rectangle 79" x="0.357142" y="2.38058" width="4.77219" height="13.4511" rx="1.07143" stroke="#FFD69D" stroke-width="0.714284"/>
</g>
<g id="Group 3">
<rect id="Rectangle 76_2" x="0.328056" y="0.189403" width="1.96429" height="0.535713" rx="0.267856" transform="matrix(0.965926 -0.258818 0.25882 0.965926 15.3098 13.3794)" stroke="#FFD69D" stroke-width="0.535713"/>
<rect id="Rectangle 80_2" x="0.328056" y="0.189403" width="1.96429" height="0.535713" rx="0.267856" transform="matrix(0.965926 -0.258818 0.25882 0.965926 12.9075 4.41021)" stroke="#FFD69D" stroke-width="0.535713"/>
<rect id="Rectangle 79_2" x="0.437409" y="0.252538" width="4.77219" height="13.4511" rx="1.07143" transform="matrix(0.965926 -0.258818 0.25882 0.965926 11.0218 2.97045)" stroke="#FFD69D" stroke-width="0.714284"/>
</g>
<g id="Group 1">
<rect id="Rectangle 77" x="6.52902" y="0.357142" width="4.77219" height="15.4748" rx="1.07143" stroke="#FFD69D" stroke-width="0.714284"/>
<rect id="Rectangle 79_3" x="7.76786" y="2.0535" width="2.32143" height="0.535712" rx="0.267856" stroke="#FFD69D" stroke-width="0.535712"/>
<rect id="Rectangle 80_3" x="7.76786" y="7.76786" width="2.32143" height="0.535712" rx="0.267856" stroke="#FFD69D" stroke-width="0.535712"/>
<rect id="Rectangle 81" x="7.76786" y="13.8391" width="2.32143" height="0.535712" rx="0.267856" stroke="#FFD69D" stroke-width="0.535712"/>
</g>
</g>
</svg>
