<svg width="24" height="24" viewBox="0 0 24 24" fill="none" xmlns="http://www.w3.org/2000/svg">
<circle cx="12" cy="12" r="12" fill="#B19D7C"/>
<path d="M13.7327 18C12.2406 18 12.0748 16.5357 12.0748 16.1004V7.71057C12.0748 6.5629 12.2821 5.91571 13.6084 6.00885C14.6271 6.08039 14.7965 6.94545 14.7689 7.27523C15.059 7.18289 15.7587 7.1635 16.3439 7.71057C17.0485 8.36932 17.0208 8.97695 16.8412 9.45185C17.3386 9.58376 18.3333 10.1167 18.3333 11.1931C18.3333 12.2696 17.7254 12.7761 17.4215 12.8949C17.836 13.2766 18.2049 13.9921 17.7531 14.9783C17.1728 16.2447 16.1366 16.1004 15.6393 16.1004C15.6393 17.0502 15.2248 18 13.7327 18Z" fill="white"/>
<path d="M9.60062 18C11.0927 18 11.2585 16.5357 11.2585 16.1004V7.71057C11.2585 6.5629 11.0513 5.91571 9.72496 6.00885C8.70627 6.08039 8.53681 6.94545 8.56445 7.27523C8.27432 7.18289 7.57459 7.1635 6.98946 7.71057C6.28486 8.36932 6.31249 8.97695 6.49209 9.45185C5.99473 9.58376 5 10.1167 5 11.1931C5 12.2696 5.60789 12.7761 5.91184 12.8949C5.49736 13.2766 5.12839 13.9921 5.58026 14.9783C6.16052 16.2447 7.19669 16.1004 7.69406 16.1004C7.69406 17.0502 8.10853 18 9.60062 18Z" fill="white"/>
</svg>
