<svg width="32" height="32" viewBox="0 0 32 32" fill="none" xmlns="http://www.w3.org/2000/svg">
<rect width="32" height="32" rx="16" fill="#3A2635"/>
<path d="M13.55 17.1499L22 8.6999C22.2 8.4999 22.4376 8.3999 22.713 8.3999C22.9883 8.3999 23.2256 8.4999 23.425 8.6999C23.625 8.8999 23.725 9.13724 23.725 9.4119C23.725 9.68657 23.625 9.92424 23.425 10.1249L14.25 19.2999C14.05 19.4999 13.8166 19.5999 13.55 19.5999C13.2833 19.5999 13.05 19.4999 12.85 19.2999L8.57496 15.0249C8.37496 14.8249 8.27896 14.5872 8.28696 14.3119C8.29496 14.0366 8.39929 13.7992 8.59996 13.5999C8.79996 13.3999 9.03763 13.2999 9.31296 13.2999C9.58829 13.2999 9.82563 13.3999 10.025 13.5999L13.55 17.1499ZM9.99996 23.9999C9.71663 23.9999 9.47896 23.9039 9.28696 23.7119C9.09496 23.5199 8.99929 23.2826 8.99996 22.9999C8.99996 22.7166 9.09596 22.4789 9.28796 22.2869C9.47996 22.0949 9.71729 21.9992 9.99996 21.9999H22C22.2833 21.9999 22.521 22.0959 22.713 22.2879C22.905 22.4799 23.0006 22.7172 23 22.9999C23 23.2832 22.904 23.5209 22.712 23.7129C22.52 23.9049 22.2826 24.0006 22 23.9999H9.99996Z" fill="white"/>
</svg>
