<svg width="24" height="24" viewBox="0 0 24 24" fill="none" xmlns="http://www.w3.org/2000/svg">
<circle cx="12" cy="12" r="12" fill="#B19D7C"/>
<path d="M11.3197 17.4315C11.5426 18.5151 11.3643 18.5644 10.7845 18.6136C9.71421 18.8107 9.58038 18.4166 9.58038 18.121C9.53578 16.1508 10.6061 14.9686 11.1413 14.3283C11.6764 13.688 11.6764 13.3923 10.7845 14.3283C9.89257 15.2642 5.07616 16.9388 5.34374 12.555C5.61132 8.17111 8.06412 10.0921 9.04524 10.6832C10.0264 11.2743 9.71419 10.7324 9.22363 10.2891C8.73307 9.84581 6.05728 6.84113 10.3385 5.56044C14.6198 4.27976 13.4603 8.81142 13.4157 9.304C13.3711 9.79659 13.4603 11.4221 13.7725 9.304C14.0846 7.18595 16.5374 4.18126 18.2321 8.6144C19.9268 13.0475 16.1361 12.5057 15.8239 12.555C15.5117 12.6042 14.5752 12.6535 15.8239 12.9983C17.0726 13.3431 17.5632 14.0327 17.6523 15.1656C17.7415 16.2986 16.8942 18.121 14.932 18.121C12.9697 18.121 12.5238 16.4956 12.5238 15.1656C12.5238 13.8357 12.3454 14.0327 12.1224 14.3283C11.8994 14.6238 11.0967 16.3478 11.3197 17.4315Z" fill="white"/>
</svg>
