<svg width="8" height="13" viewBox="0 0 8 13" fill="none" xmlns="http://www.w3.org/2000/svg">
<path d="M3.99935 9.40016L6.13268 6.3335H4.23268L5.56602 1.66683H1.99935V7.00016H3.99935V9.40016ZM7.58268 6.56683L3.58268 12.3502C3.51602 12.4502 3.4298 12.5168 3.32402 12.5502C3.21824 12.5835 3.11557 12.5835 3.01602 12.5502C2.91602 12.5168 2.83268 12.4586 2.76602 12.3755C2.69935 12.2924 2.66602 12.1895 2.66602 12.0668V8.3335H1.99935C1.63268 8.3335 1.31868 8.20283 1.05735 7.9415C0.796017 7.68016 0.665572 7.36639 0.666017 7.00016V1.66683C0.666017 1.30016 0.796683 0.986164 1.05802 0.72483C1.31935 0.463497 1.63313 0.333053 1.99935 0.333497H5.89935C6.25491 0.333497 6.54113 0.472386 6.75802 0.750164C6.97491 1.02794 7.03868 1.3335 6.94935 1.66683L5.99935 5.00016H6.74935C7.14935 5.00016 7.44668 5.17794 7.64135 5.5335C7.83602 5.88905 7.81646 6.2335 7.58268 6.56683Z" fill="white"/>
</svg>
