<svg width="24" height="24" viewBox="0 0 24 24" fill="none" xmlns="http://www.w3.org/2000/svg">
<rect x="6.28516" y="2" width="1.07143" height="4.00002" rx="0.400001" fill="#FFD69D"/>
<rect x="16.6426" y="2" width="1.07143" height="4.00002" rx="0.400001" fill="#FFD69D"/>
<rect x="9.5" y="11.0908" width="2.14286" height="2.18183" rx="0.400001" fill="#FFD69D"/>
<rect x="12.7129" y="11.0908" width="2.14286" height="2.18183" rx="0.400001" fill="#FFD69D"/>
<rect x="15.9277" y="11.0908" width="2.14286" height="2.18183" rx="0.400001" fill="#FFD69D"/>
<rect x="6.28516" y="14.3633" width="2.14286" height="2.18183" rx="0.400001" fill="#FFD69D"/>
<rect x="9.5" y="14.3633" width="2.14286" height="2.18183" rx="0.400001" fill="#FFD69D"/>
<rect x="12.7129" y="14.3633" width="2.14286" height="2.18183" rx="0.400001" fill="#FFD69D"/>
<rect x="15.9277" y="14.3633" width="2.14286" height="2.18183" rx="0.400001" fill="#FFD69D"/>
<rect x="6.28516" y="17.6362" width="2.14286" height="2.18183" rx="0.400001" fill="#FFD69D"/>
<rect x="9.5" y="17.6362" width="2.14286" height="2.18183" rx="0.400001" fill="#FFD69D"/>
<rect x="12.7129" y="17.6362" width="2.14286" height="2.18183" rx="0.400001" fill="#FFD69D"/>
<rect x="15.9277" y="17.6362" width="2.14286" height="2.18183" rx="0.400001" fill="#FFD69D"/>
<path fill-rule="evenodd" clip-rule="evenodd" d="M22 10H21.2857V18.3636C21.2857 19.9703 20.0065 21.2727 18.4286 21.2727H5.57143C3.99347 21.2727 2.71429 19.9703 2.71429 18.3636V10H2V18.3636C2 19.479 2.49319 20.4771 3.26963 21.1441C3.89343 21.6744 4.70036 21.9958 5.58224 22H18.4178C19.2996 21.9958 20.1065 21.6744 20.7303 21.1442C21.5068 20.4772 22 19.479 22 18.3636V10Z" fill="#FFD69D"/>
<path fill-rule="evenodd" clip-rule="evenodd" d="M6.28574 2.4C6.28574 2.17909 6.46483 2 6.68574 2H6.95717C7.17808 2 7.35717 2.17909 7.35717 2.4V5.60002C7.35717 5.82093 7.17808 6.00002 6.95717 6.00002H6.68574C6.46483 6.00002 6.28574 5.82093 6.28574 5.60002V2.4ZM16.6429 2.4C16.6429 2.17909 16.822 2 17.0429 2H17.3143C17.5352 2 17.7143 2.17909 17.7143 2.4V5.60002C17.7143 5.82093 17.5352 6.00002 17.3143 6.00002H17.0429C16.822 6.00002 16.6429 5.82093 16.6429 5.60002V2.4ZM2.71429 7.45455V8.39998H21.2857V7.45456C21.2857 5.8479 20.0065 4.54545 18.4286 4.54545H18.4V3.81817H18.4286C20.401 3.81817 22 5.44624 22 7.45456V8.39998V9.19999V9.20004H21.2857V9.19999H2.71429V9.20004H2V9.19999V8.39998V7.45455C2 5.44624 3.59898 3.81817 5.57143 3.81817H5.6V4.54545H5.57143C3.99347 4.54545 2.71429 5.8479 2.71429 7.45455ZM8 3.81817H16V4.54545H8V3.81817Z" fill="#FFD69D"/>
</svg>
