<svg width="20" height="20" viewBox="0 0 20 20" fill="none" xmlns="http://www.w3.org/2000/svg">
<rect x="4.28571" width="1.07143" height="4.00002" rx="0.400001" fill="#FFD69D"/>
<rect x="14.6428" width="1.07143" height="4.00002" rx="0.400001" fill="#FFD69D"/>
<path d="M-0.00012207 8H19.9999V16.4001C19.9999 18.3883 18.3881 20.0001 16.3999 20.0001H3.59989C1.61166 20.0001 -0.00012207 18.3883 -0.00012207 16.4001V8Z" fill="#FFD69D"/>
<rect x="7.49994" y="9.09106" width="2.14286" height="2.18183" rx="0.400001" fill="#725A34"/>
<rect x="10.7143" y="9.09106" width="2.14286" height="2.18183" rx="0.400001" fill="#725A34"/>
<rect x="13.9288" y="9.09106" width="2.14286" height="2.18183" rx="0.400001" fill="#725A34"/>
<rect x="4.28564" y="12.3638" width="2.14286" height="2.18183" rx="0.400001" fill="#725A34"/>
<rect x="7.49994" y="12.3638" width="2.14286" height="2.18183" rx="0.400001" fill="#725A34"/>
<rect x="10.7143" y="12.3638" width="2.14286" height="2.18183" rx="0.400001" fill="#725A34"/>
<rect x="13.9288" y="12.3638" width="2.14286" height="2.18183" rx="0.400001" fill="#725A34"/>
<rect x="4.28564" y="15.6365" width="2.14286" height="2.18183" rx="0.400001" fill="#725A34"/>
<rect x="7.49994" y="15.6365" width="2.14286" height="2.18183" rx="0.400001" fill="#725A34"/>
<rect x="10.7143" y="15.6365" width="2.14286" height="2.18183" rx="0.400001" fill="#725A34"/>
<rect x="13.9288" y="15.6365" width="2.14286" height="2.18183" rx="0.400001" fill="#725A34"/>
<path fill-rule="evenodd" clip-rule="evenodd" d="M13.9999 2H5.99994V3.99998C5.99994 4.4418 5.64177 4.79998 5.19994 4.79998H4.39994C3.95811 4.79998 3.59994 4.44181 3.59994 3.99998V2C1.61171 2 -6.10352e-05 3.61178 -6.10352e-05 5.60001V7.20003H19.9999V5.60001C19.9999 3.61178 18.3882 2 16.3999 2L16.3999 3.99998C16.3999 4.4418 16.0418 4.79998 15.5999 4.79998H14.7999C14.3581 4.79998 13.9999 4.44181 13.9999 3.99998V2Z" fill="#FFD69D"/>
<path fill-rule="evenodd" clip-rule="evenodd" d="M19.9999 8H19.2857V16.3636C19.2857 17.9703 18.0065 19.2727 16.4285 19.2727H3.57137C1.99341 19.2727 0.714224 17.9703 0.714224 16.3636V8H-6.10352e-05V16.3636C-6.10352e-05 17.479 0.493125 18.4771 1.26957 19.1441C1.89337 19.6744 2.7003 19.9958 3.58218 20H16.4177C17.2995 19.9958 18.1064 19.6744 18.7302 19.1442C19.5067 18.4772 19.9999 17.479 19.9999 16.3636V8Z" fill="#FFD69D"/>
<path fill-rule="evenodd" clip-rule="evenodd" d="M4.28574 0.400001C4.28574 0.179086 4.46483 0 4.68574 0H4.95717C5.17808 0 5.35717 0.179087 5.35717 0.400001V3.60002C5.35717 3.82093 5.17808 4.00002 4.95717 4.00002H4.68574C4.46483 4.00002 4.28574 3.82093 4.28574 3.60002V0.400001ZM14.6429 0.400001C14.6429 0.179086 14.822 0 15.0429 0H15.3143C15.5352 0 15.7143 0.179087 15.7143 0.400001V3.60002C15.7143 3.82093 15.5352 4.00002 15.3143 4.00002H15.0429C14.822 4.00002 14.6429 3.82093 14.6429 3.60002V0.400001ZM0.714286 5.45455V6.39998H19.2857V5.45456C19.2857 3.8479 18.0065 2.54545 16.4286 2.54545H16.4V1.81817H16.4286C18.401 1.81817 20 3.44624 20 5.45456V6.39998V7.19999V7.20004H19.2857V7.19999H0.714286V7.20004H0V7.19999V6.39998V5.45455C0 3.44624 1.59898 1.81817 3.57143 1.81817H3.6V2.54545H3.57143C1.99347 2.54545 0.714286 3.8479 0.714286 5.45455ZM6 1.81817H14V2.54545H6V1.81817Z" fill="#FFD69D"/>
</svg>
