<svg width="25" height="24" viewBox="0 0 25 24" fill="none" xmlns="http://www.w3.org/2000/svg">
<circle cx="12.5" cy="12" r="12" fill="#DAAC2B"/>
<path d="M7.16675 13.3333C7.16675 12.1667 7.44453 11.1278 8.00008 10.2167C8.55564 9.30556 9.16675 8.53889 9.83341 7.91667C10.5001 7.29444 11.1112 6.81933 11.6667 6.49133L12.5001 6V8.2C12.5001 8.61111 12.639 8.936 12.9167 9.17467C13.1945 9.41333 13.5056 9.53289 13.8501 9.53333C14.039 9.53333 14.2196 9.49444 14.3921 9.41667C14.5645 9.33889 14.7227 9.21111 14.8667 9.03333L15.1667 8.66667C15.9667 9.13333 16.6112 9.78044 17.1001 10.608C17.589 11.4356 17.8334 12.344 17.8334 13.3333C17.8334 14.3111 17.5945 15.2029 17.1167 16.0087C16.639 16.8144 16.0112 17.4502 15.2334 17.916C15.4223 17.6493 15.5696 17.3576 15.6754 17.0407C15.7812 16.7238 15.8339 16.388 15.8334 16.0333C15.8334 15.5889 15.7501 15.1693 15.5834 14.7747C15.4167 14.38 15.1779 14.0273 14.8667 13.7167L12.5001 11.4L10.1501 13.7167C9.82786 14.0389 9.58341 14.3944 9.41675 14.7833C9.25008 15.1722 9.16675 15.5889 9.16675 16.0333C9.16675 16.3889 9.21964 16.7251 9.32541 17.042C9.43119 17.3589 9.5783 17.6504 9.76675 17.9167C8.98897 17.45 8.36119 16.8138 7.88341 16.008C7.40564 15.2022 7.16675 14.3107 7.16675 13.3333ZM12.5001 13.2667L13.9167 14.65C14.1056 14.8389 14.2501 15.05 14.3501 15.2833C14.4501 15.5167 14.5001 15.7667 14.5001 16.0333C14.5001 16.5778 14.3056 17.0416 13.9167 17.4247C13.5279 17.8078 13.0556 17.9996 12.5001 18C11.9445 18 11.4723 17.8082 11.0834 17.4247C10.6945 17.0411 10.5001 16.5773 10.5001 16.0333C10.5001 15.7778 10.5501 15.5304 10.6501 15.2913C10.7501 15.0522 10.8945 14.8384 11.0834 14.65L12.5001 13.2667Z" fill="white"/>
</svg>
