<svg width="24" height="24" viewBox="0 0 24 24" fill="none" xmlns="http://www.w3.org/2000/svg">
<path d="M5.69531 22.0002V21.3223H7.39023L6.82526 22.0002H5.69531Z" stroke="#FFD69D" stroke-width="0.677967"/>
<path d="M17.8984 22.0002V21.3223H16.2035L16.7685 22.0002H17.8984Z" stroke="#FFD69D" stroke-width="0.677967"/>
<path fill-rule="evenodd" clip-rule="evenodd" d="M5.35593 2C4.60707 2 4 2.60707 4 3.35593V7.42373H19.5916V3.01695C19.5916 2.4553 19.1363 2 18.5747 2H5.35593ZM15.8644 3.56309L14.8833 3.35596L13.7919 6.56528L14.7869 6.77534L15.8644 3.60691V6.74579H16.8814V3.35596H15.8644V3.56309ZM15.8644 3.56309V3.60691L15.8784 3.56602L15.8644 3.56309ZM17.2204 3.35596H18.2373V6.74579H17.2204V3.35596Z" fill="#FFD69D"/>
<path fill-rule="evenodd" clip-rule="evenodd" d="M19.5916 8.10156H4V13.5253H19.5916V8.10156ZM5.69499 9.45746H6.71194V12.8473H5.69499V9.45746ZM7.05092 9.45746H8.06788V12.8473H7.05092V9.45746Z" fill="#FFD69D"/>
<path fill-rule="evenodd" clip-rule="evenodd" d="M12.1348 14.2036H19.6144V19.2883C19.6144 20.0372 19.0074 20.6443 18.2585 20.6443H12.1348V14.2036ZM13.5253 17.4196C13.5474 17.5905 13.5844 17.7761 13.6537 17.9145L14.26 17.6113C14.2445 17.5803 14.218 17.4904 14.1977 17.3329C14.1787 17.1859 14.1687 17.0101 14.1687 16.8307C14.1687 16.6514 14.1787 16.4755 14.1977 16.3285C14.218 16.171 14.2445 16.0811 14.26 16.0501L13.6537 15.7469C13.5844 15.8854 13.5474 16.0709 13.5253 16.2418C13.5019 16.4232 13.4907 16.6287 13.4907 16.8307C13.4907 17.0327 13.5019 17.2382 13.5253 17.4196Z" fill="#FFD69D"/>
<path fill-rule="evenodd" clip-rule="evenodd" d="M11.4805 14.2036H4.00079V19.2883C4.00079 20.0372 4.60787 20.6443 5.35673 20.6443H11.4805V14.2036ZM10.09 17.4196C10.0679 17.5905 10.0309 17.7761 9.96166 17.9145L9.35526 17.6113C9.37078 17.5803 9.39728 17.4904 9.4176 17.3329C9.43657 17.1859 9.44659 17.0101 9.44659 16.8307C9.44659 16.6514 9.43657 16.4755 9.4176 16.3285C9.39728 16.171 9.37078 16.0811 9.35526 16.0501L9.96166 15.7469C10.0309 15.8854 10.0679 16.0709 10.09 16.2418C10.1134 16.4232 10.1246 16.6287 10.1246 16.8307C10.1246 17.0327 10.1134 17.2382 10.09 17.4196Z" fill="#FFD69D"/>
</svg>
