<svg width="24" height="24" viewBox="0 0 24 24" fill="none" xmlns="http://www.w3.org/2000/svg">
<path d="M17.8984 21.9997V21.3218H16.2035L16.7685 21.9997H17.8984Z" stroke="#FFD69D" stroke-width="0.677968"/>
<path d="M5.69531 21.9997V21.3218H7.39023L6.82526 21.9997H5.69531Z" stroke="#FFD69D" stroke-width="0.677968"/>
<rect x="17.2207" y="3.35596" width="1.01695" height="3.38984" fill="#FFD69D"/>
<rect x="15.8652" y="3.35596" width="1.01695" height="3.38984" fill="#FFD69D"/>
<rect width="1.01695" height="3.38984" transform="matrix(0.978434 0.206558 -0.321979 0.946747 14.8828 3.35596)" fill="#FFD69D"/>
<rect x="7.05078" y="9.45752" width="1.01695" height="3.38984" fill="#FFD69D"/>
<rect x="5.69531" y="9.45752" width="1.01695" height="3.38984" fill="#FFD69D"/>
<path fill-rule="evenodd" clip-rule="evenodd" d="M18.9137 8.77953H4.67797V12.8473H18.9137V8.77953ZM4.67797 8.10156H4V8.77953V12.8473V13.5253H4.67797H18.9137H19.5917V12.8473V8.77953V8.10156H18.9137H4.67797Z" fill="#FFD69D"/>
<path fill-rule="evenodd" clip-rule="evenodd" d="M18.5747 2.67797H5.35594C4.9815 2.67797 4.67797 2.9815 4.67797 3.35594V6.74577H18.9137V3.01695C18.9137 2.82974 18.7619 2.67797 18.5747 2.67797ZM5.35594 2C4.60707 2 4 2.60707 4 3.35594V6.74577V7.42374H4.67797H18.9137H19.5917V6.74577V3.01695C19.5917 2.4553 19.1363 2 18.5747 2H5.35594Z" fill="#FFD69D"/>
<path fill-rule="evenodd" clip-rule="evenodd" d="M4.67797 14.8811H10.8017V19.9659H5.35594C4.9815 19.9659 4.67797 19.6623 4.67797 19.2879V14.8811ZM10.8017 14.2031H11.4797V14.8811V19.9659V20.6438H10.8017H5.35594C4.60707 20.6438 4 20.0368 4 19.2879V14.8811V14.2031H4.67797H10.8017Z" fill="#FFD69D"/>
<mask id="path-11-inside-1_30726_3857" fill="white">
<path d="M12.1133 14.2031H19.593V19.2879C19.593 20.0367 18.9859 20.6438 18.237 20.6438H12.1133V14.2031Z"/>
</mask>
<path d="M12.1133 14.2031V13.5252H11.4353V14.2031H12.1133ZM19.593 14.2031H20.2709V13.5252H19.593V14.2031ZM12.1133 20.6438H11.4353V21.3218H12.1133V20.6438ZM12.1133 14.8811H19.593V13.5252H12.1133V14.8811ZM18.915 14.2031V19.2879H20.2709V14.2031H18.915ZM18.237 19.9658H12.1133V21.3218H18.237V19.9658ZM12.7912 20.6438V14.2031H11.4353V20.6438H12.7912ZM18.915 19.2879C18.915 19.6623 18.6115 19.9658 18.237 19.9658V21.3218C19.3603 21.3218 20.2709 20.4111 20.2709 19.2879H18.915Z" fill="#FFD69D" mask="url(#path-11-inside-1_30726_3857)"/>
<path d="M9.59375 17.7624C9.76324 17.4234 9.76324 16.2369 9.59375 15.8979" stroke="#FFD69D" stroke-width="0.677968"/>
<path d="M13.957 17.7624C13.7875 17.4234 13.7875 16.2369 13.957 15.8979" stroke="#FFD69D" stroke-width="0.677968"/>
</svg>
