<svg width="32" height="32" viewBox="0 0 32 32" fill="none" xmlns="http://www.w3.org/2000/svg">
<path d="M16.0003 22.6667C16.3781 22.6667 16.695 22.5387 16.951 22.2827C17.207 22.0267 17.3345 21.7103 17.3337 21.3334V16.0001C17.3337 15.6223 17.2057 15.3054 16.9497 15.0494C16.6937 14.7934 16.3772 14.6659 16.0003 14.6667C15.6225 14.6667 15.3057 14.7947 15.0497 15.0507C14.7937 15.3067 14.6661 15.6232 14.667 16.0001V21.3334C14.667 21.7112 14.795 22.0281 15.051 22.2841C15.307 22.5401 15.6234 22.6676 16.0003 22.6667ZM16.0003 12.0001C16.3781 12.0001 16.695 11.8721 16.951 11.6161C17.207 11.3601 17.3345 11.0436 17.3337 10.6667C17.3337 10.289 17.2057 9.97208 16.9497 9.71608C16.6937 9.46008 16.3772 9.33253 16.0003 9.33342C15.6225 9.33342 15.3057 9.46141 15.0497 9.71741C14.7937 9.97341 14.6661 10.2899 14.667 10.6667C14.667 11.0445 14.795 11.3614 15.051 11.6174C15.307 11.8734 15.6234 12.001 16.0003 12.0001ZM16.0003 29.3334C14.1559 29.3334 12.4225 28.9832 10.8003 28.2827C9.1781 27.5823 7.76699 26.6325 6.56699 25.4334C5.36699 24.2334 4.41721 22.8223 3.71766 21.2001C3.0181 19.5779 2.66788 17.8445 2.66699 16.0001C2.66699 14.1556 3.01721 12.4223 3.71766 10.8001C4.4181 9.17786 5.36788 7.76675 6.56699 6.56675C7.76699 5.36675 9.1781 4.41697 10.8003 3.71741C12.4225 3.01786 14.1559 2.66764 16.0003 2.66675C17.8448 2.66675 19.5781 3.01697 21.2003 3.71741C22.8225 4.41786 24.2337 5.36764 25.4337 6.56675C26.6337 7.76675 27.5839 9.17786 28.2843 10.8001C28.9848 12.4223 29.3345 14.1556 29.3337 16.0001C29.3337 17.8445 28.9834 19.5779 28.283 21.2001C27.5825 22.8223 26.6328 24.2334 25.4337 25.4334C24.2337 26.6334 22.8225 27.5836 21.2003 28.2841C19.5781 28.9845 17.8448 29.3343 16.0003 29.3334Z" fill="#3A2635"/>
<path d="M16.0003 22.6667C16.3781 22.6667 16.695 22.5387 16.951 22.2827C17.207 22.0267 17.3345 21.7103 17.3337 21.3334V16.0001C17.3337 15.6223 17.2057 15.3054 16.9497 15.0494C16.6937 14.7934 16.3772 14.6659 16.0003 14.6667C15.6225 14.6667 15.3057 14.7947 15.0497 15.0507C14.7937 15.3067 14.6661 15.6232 14.667 16.0001V21.3334C14.667 21.7112 14.795 22.0281 15.051 22.2841C15.307 22.5401 15.6234 22.6676 16.0003 22.6667Z" fill="white"/>
<path d="M16.0003 12.0001C16.3781 12.0001 16.695 11.8721 16.951 11.6161C17.207 11.3601 17.3345 11.0436 17.3337 10.6667C17.3337 10.289 17.2057 9.97208 16.9497 9.71608C16.6937 9.46008 16.3772 9.33253 16.0003 9.33342C15.6225 9.33342 15.3057 9.46141 15.0497 9.71741C14.7937 9.97341 14.6661 10.2899 14.667 10.6667C14.667 11.0445 14.795 11.3614 15.051 11.6174C15.307 11.8734 15.6234 12.001 16.0003 12.0001Z" fill="white"/>
</svg>
