<svg width="16" height="16" viewBox="0 0 16 16" fill="none" xmlns="http://www.w3.org/2000/svg">
<path fill-rule="evenodd" clip-rule="evenodd" d="M1.87491 14.3117C2.90873 15.1428 3.80339 14.2721 3.92267 14.1336C4.0181 14.0227 7.66034 10.3141 9.46953 8.47363C10.1256 8.84304 11.74 9.28106 12.9487 8.07783C14.4597 6.5738 14.8971 5.56451 14.5591 5.22808C14.2211 4.89165 13.7639 5.16871 13.6247 5.32703C13.4855 5.48535 12.7102 6.09884 12.2529 6.43527C11.7956 6.7717 11.2787 6.77169 10.6823 5.99989C10.4743 5.73075 10.3413 5.55547 10.2393 5.42117C10.0489 5.17033 9.96708 5.06246 9.70811 4.75312C9.31048 4.27816 9.56894 3.66468 9.94668 3.36783C10.3244 3.07098 10.9606 2.57623 11.3185 2.29917C11.6763 2.02211 11.7559 1.6461 11.5372 1.46799C10.9407 0.953454 8.17725 1.98253 7.54105 3.36783C6.90486 4.75312 7.12355 5.66346 7.46153 6.3759C6.84521 6.98939 2.4117 11.5015 1.55681 12.392C1.21883 12.7878 1.21883 13.8169 1.87491 14.3117ZM2.84435 14.1571C3.39335 14.1571 3.83841 13.7141 3.83841 13.1676C3.83841 12.6211 3.39335 12.1781 2.84435 12.1781C2.29534 12.1781 1.85029 12.6211 1.85029 13.1676C1.85029 13.7141 2.29534 14.1571 2.84435 14.1571Z" fill="#FFD69D"/>
</svg>
