<svg width="24" height="24" viewBox="0 0 24 24" fill="none" xmlns="http://www.w3.org/2000/svg">
<circle cx="12" cy="12" r="12" fill="#B19D7C"/>
<path d="M12.0003 15.4L14.1337 12.3333H12.2337L13.567 7.66665H10.0003V13H12.0003V15.4ZM15.5837 12.5666L11.5837 18.35C11.517 18.45 11.4308 18.5166 11.325 18.55C11.2192 18.5833 11.1165 18.5833 11.017 18.55C10.917 18.5166 10.8337 18.4584 10.767 18.3753C10.7003 18.2922 10.667 18.1893 10.667 18.0666V14.3333H10.0003C9.63366 14.3333 9.31966 14.2026 9.05833 13.9413C8.79699 13.68 8.66655 13.3662 8.66699 13V7.66665C8.66699 7.29998 8.79766 6.98598 9.05899 6.72465C9.32033 6.46331 9.6341 6.33287 10.0003 6.33331H13.9003C14.2559 6.33331 14.5421 6.4722 14.759 6.74998C14.9759 7.02776 15.0397 7.33331 14.9503 7.66665L14.0003 11H14.7503C15.1503 11 15.4477 11.1778 15.6423 11.5333C15.837 11.8889 15.8174 12.2333 15.5837 12.5666Z" fill="white"/>
<path d="M12.0003 15.4L14.1337 12.3333H12.2337L13.567 7.66665H10.0003V13H12.0003V15.4Z" fill="white"/>
</svg>
