<svg width="72" height="64" viewBox="0 0 72 64" fill="none" xmlns="http://www.w3.org/2000/svg">
<g id="Ligth" style="mix-blend-mode:overlay" opacity="0.7">
<path d="M0 0.869565C0 0.389317 0.367853 -4.0074e-07 0.848101 4.71941e-06C15.3025 0.000158825 58.3017 0.00403659 71.1502 0.00420381C71.6304 0.00421006 72 0.393527 72 0.873775V63.1304C72 63.6107 71.6107 64 71.1304 64H0.869568C0.38932 64 0 63.6107 0 63.1304V0.869565Z" fill="url(#paint0_radial_30704_5131)"/>
<path d="M0 0.869565C0 0.389317 0.367853 -4.0074e-07 0.848101 4.71941e-06C15.3025 0.000158825 58.3017 0.00403659 71.1502 0.00420381C71.6304 0.00421006 72 0.393527 72 0.873775V63.1304C72 63.6107 71.6107 64 71.1304 64H0.869568C0.38932 64 0 63.6107 0 63.1304V0.869565Z" fill="url(#paint1_radial_30704_5131)" fill-opacity="0.7"/>
</g>
<defs>
<radialGradient id="paint0_radial_30704_5131" cx="0" cy="0" r="1" gradientUnits="userSpaceOnUse" gradientTransform="translate(24.8 -21.161) rotate(85.8223) scale(47.586 56.35)">
<stop stop-color="white"/>
<stop offset="1" stop-color="white" stop-opacity="0"/>
</radialGradient>
<radialGradient id="paint1_radial_30704_5131" cx="0" cy="0" r="1" gradientUnits="userSpaceOnUse" gradientTransform="translate(42.1333 83.0725) rotate(-91.3776) scale(38.8216 113.275)">
<stop stop-color="white"/>
<stop offset="0.956555" stop-color="white" stop-opacity="0"/>
</radialGradient>
</defs>
</svg>
