<svg width="16" height="16" viewBox="0 0 16 16" fill="none" xmlns="http://www.w3.org/2000/svg">
<path d="M4.00008 14.6667C3.63342 14.6667 3.31942 14.5361 3.05808 14.2747C2.79675 14.0134 2.6663 13.6996 2.66675 13.3334V6.66675C2.66675 6.30008 2.79742 5.98608 3.05875 5.72475C3.32008 5.46341 3.63386 5.33297 4.00008 5.33341H4.66675V4.00008C4.66675 3.07786 4.99186 2.29164 5.64208 1.64142C6.2923 0.991193 7.0783 0.666304 8.00008 0.666749C8.9223 0.666749 9.70853 0.99186 10.3587 1.64208C11.009 2.2923 11.3339 3.0783 11.3334 4.00008V5.33341H12.0001C12.3667 5.33341 12.6807 5.46408 12.9421 5.72541C13.2034 5.98675 13.3339 6.30053 13.3334 6.66675V13.3334C13.3334 13.7001 13.2027 14.0141 12.9414 14.2754C12.6801 14.5367 12.3663 14.6672 12.0001 14.6667H4.00008ZM8.00008 11.3334C8.36675 11.3334 8.68075 11.2027 8.94208 10.9414C9.20342 10.6801 9.33386 10.3663 9.33342 10.0001C9.33342 9.63342 9.20275 9.31942 8.94142 9.05808C8.68008 8.79675 8.3663 8.6663 8.00008 8.66675C7.63342 8.66675 7.31942 8.79741 7.05808 9.05875C6.79675 9.32008 6.6663 9.63386 6.66675 10.0001C6.66675 10.3667 6.79742 10.6807 7.05875 10.9421C7.32008 11.2034 7.63386 11.3339 8.00008 11.3334ZM6.00008 5.33341H10.0001V4.00008C10.0001 3.44453 9.80564 2.9723 9.41675 2.58342C9.02786 2.19453 8.55564 2.00008 8.00008 2.00008C7.44453 2.00008 6.9723 2.19453 6.58342 2.58342C6.19453 2.9723 6.00008 3.44453 6.00008 4.00008V5.33341Z" fill="white"/>
</svg>
