<?xml version="1.0" encoding="UTF-8"?><svg xmlns="http://www.w3.org/2000/svg" viewBox="0 0 600 204.43"><defs><style>.d{fill:#fff;}</style></defs><g id="a"/><g id="b"><g id="c"><g><polygon class="d" points="308.01 0 308.01 145.32 162.69 145.32 162.69 0 209.34 0 209.34 96.88 212.92 96.88 212.92 0 257.78 0 257.78 96.88 261.37 96.88 261.37 0 308.01 0"/><path class="d" d="M308.01,0V145.32h145.32V0h-145.32Zm74.46,96.88h-3.59V48.44h3.59v48.44Z"/><polygon class="d" points="598.66 0 598.66 145.32 453.34 145.32 453.34 0 499.98 0 499.98 96.88 503.57 96.88 503.57 0 548.43 0 548.43 96.88 552.01 96.88 552.01 0 598.66 0"/><rect class="d" x="1.22" y="0" width="32.29" height="145.32"/><polygon class="d" points="33.52 145.32 65.81 145.32 98.11 0 65.81 0 33.52 145.32"/><polygon class="d" points="162.69 145.32 130.4 145.32 98.11 0 130.4 0 162.69 145.32"/><g><path class="d" d="M57.08,168.59h8.18l-11.82,35.23h-11.72l-9.09-30.15-9.24,30.15H11.62L0,168.59H8.43l9.39,30.15,9.34-30.15h11.11l9.19,30.15,9.6-30.15Z"/><path class="d" d="M72.43,199.49c-3.97-3.29-5.96-7.72-5.96-13.29s1.99-10,5.96-13.29c3.97-3.29,9.53-4.93,16.67-4.93s12.7,1.64,16.69,4.93c3.99,3.29,5.99,7.72,5.99,13.29s-2,10-5.99,13.29c-3.99,3.29-9.56,4.93-16.69,4.93s-12.7-1.64-16.67-4.93Zm5.78-21.84c-2.58,2.18-3.86,5.03-3.86,8.56s1.29,6.38,3.86,8.56c2.58,2.18,6.2,3.27,10.89,3.27s8.32-1.09,10.91-3.27,3.89-5.03,3.89-8.56-1.3-6.37-3.89-8.56c-2.59-2.18-6.23-3.27-10.91-3.27s-8.31,1.09-10.89,3.27Z"/><path class="d" d="M147.44,203.82l-12.93-13.39h-9.14v13.39h-7.88v-35.23h24.3c4.07,0,7.38,.95,9.93,2.84,2.54,1.9,3.81,4.67,3.81,8.33,0,3.39-1.07,5.95-3.21,7.67-2.14,1.73-5.06,2.71-8.76,2.94l13.94,13.44h-10.05Zm-22.07-28.94v9.61h16.01c1.92,0,3.44-.41,4.57-1.23,1.13-.82,1.69-1.99,1.69-3.5s-.57-2.74-1.72-3.6c-1.15-.86-2.66-1.28-4.55-1.28h-16.01Z"/><path class="d" d="M161.68,203.82v-35.23h7.88v28.79h23.69v6.44h-31.57Z"/><path class="d" d="M217.14,168.59c6.83,0,12.2,1.56,16.09,4.68,3.89,3.12,5.83,7.43,5.83,12.93s-1.94,9.82-5.83,12.94c-3.89,3.12-9.25,4.68-16.09,4.68h-18.79v-35.23h18.79Zm-.81,28.79c4.82,0,8.49-.99,11.04-2.97,2.54-1.98,3.81-4.71,3.81-8.2s-1.27-6.22-3.81-8.2-6.22-2.97-11.04-2.97h-10.1v22.35h10.1Z"/><path class="d" d="M262.8,199.49c-3.97-3.29-5.96-7.72-5.96-13.29s1.99-10,5.96-13.29c3.97-3.29,9.53-4.93,16.67-4.93s12.7,1.64,16.69,4.93c3.99,3.29,5.99,7.72,5.99,13.29s-2,10-5.99,13.29c-3.99,3.29-9.56,4.93-16.69,4.93s-12.7-1.64-16.67-4.93Zm5.78-21.84c-2.58,2.18-3.86,5.03-3.86,8.56s1.29,6.38,3.86,8.56c2.58,2.18,6.2,3.27,10.89,3.27s8.32-1.09,10.91-3.27c2.59-2.18,3.89-5.03,3.89-8.56s-1.3-6.37-3.89-8.56c-2.59-2.18-6.23-3.27-10.91-3.27s-8.31,1.09-10.89,3.27Z"/><path class="d" d="M307.85,203.82v-35.23h33.29v6.44h-25.41v8.51h20.46v6.24h-20.46v14.04h-7.88Z"/><path class="d" d="M413.16,168.59h8.18l-11.82,35.23h-11.72l-9.09-30.15-9.24,30.15h-11.77l-11.62-35.23h8.43l9.39,30.15,9.34-30.15h11.11l9.19,30.15,9.6-30.15Z"/><path class="d" d="M428.52,199.49c-3.97-3.29-5.96-7.72-5.96-13.29s1.99-10,5.96-13.29c3.97-3.29,9.53-4.93,16.67-4.93s12.7,1.64,16.69,4.93c3.99,3.29,5.99,7.72,5.99,13.29s-2,10-5.99,13.29c-3.99,3.29-9.56,4.93-16.69,4.93s-12.7-1.64-16.67-4.93Zm5.78-21.84c-2.58,2.18-3.86,5.03-3.86,8.56s1.29,6.38,3.86,8.56c2.58,2.18,6.2,3.27,10.89,3.27s8.32-1.09,10.91-3.27c2.59-2.18,3.89-5.03,3.89-8.56s-1.3-6.37-3.89-8.56c-2.59-2.18-6.23-3.27-10.91-3.27s-8.31,1.09-10.89,3.27Z"/><path class="d" d="M503.53,203.82l-12.93-13.39h-9.14v13.39h-7.88v-35.23h24.3c4.07,0,7.38,.95,9.93,2.84,2.54,1.9,3.81,4.67,3.81,8.33,0,3.39-1.07,5.95-3.21,7.67-2.14,1.73-5.06,2.71-8.76,2.94l13.94,13.44h-10.05Zm-22.07-28.94v9.61h16.01c1.92,0,3.44-.41,4.57-1.23s1.69-1.99,1.69-3.5-.57-2.74-1.72-3.6c-1.15-.86-2.66-1.28-4.55-1.28h-16.01Z"/><path class="d" d="M536.56,168.59c6.83,0,12.2,1.56,16.09,4.68,3.89,3.12,5.83,7.43,5.83,12.93s-1.94,9.82-5.83,12.94c-3.89,3.12-9.25,4.68-16.09,4.68h-18.79v-35.23h18.79Zm-.81,28.79c4.82,0,8.49-.99,11.04-2.97,2.54-1.98,3.81-4.71,3.81-8.2s-1.27-6.22-3.81-8.2-6.22-2.97-11.04-2.97h-10.1v22.35h10.1Z"/><path class="d" d="M568.68,192.15c.23,1.88,1.4,3.43,3.48,4.66s5.07,1.84,8.94,1.84c3.06,0,5.66-.33,7.8-1.01,2.14-.67,3.21-1.73,3.21-3.17,0-1.84-1.99-3.19-5.96-4.03l-12.58-2.82c-7.04-1.58-10.56-4.73-10.56-9.46,0-3.39,1.6-5.93,4.8-7.62,3.2-1.69,7.24-2.54,12.12-2.54,5.22,0,9.51,.97,12.88,2.89s5.25,4.67,5.66,8.23l-7.43,.3c-.27-1.58-1.39-2.91-3.36-4s-4.66-1.64-8.06-1.64c-2.56,0-4.66,.35-6.29,1.03-1.63,.69-2.45,1.65-2.45,2.89,0,1.81,1.9,3.12,5.71,3.92l11.77,2.57c3.97,.87,6.9,2.04,8.79,3.5,1.89,1.46,2.83,3.5,2.83,6.11,0,3.56-1.67,6.21-5.03,7.98-3.35,1.76-7.97,2.64-13.86,2.64-12.56,0-19.18-4.03-19.85-12.08l7.43-.2Z"/></g></g></g></g></svg>