<svg width="48" height="48" viewBox="0 0 48 48" fill="none" xmlns="http://www.w3.org/2000/svg">
<path fill-rule="evenodd" clip-rule="evenodd" d="M11.8541 19.0386C10.9833 16.9322 11.9849 14.5187 14.0913 13.6478C16.1977 12.777 18.6113 13.7786 19.4821 15.885L27.8074 36.0223C28.6782 38.1287 27.6766 40.5422 25.5702 41.4131C23.4638 42.2839 21.0503 41.2823 20.1794 39.1759L11.8541 19.0386ZM23.4512 35.4615L22.6891 35.7766L22.3823 35.9035C21.8023 36.1432 21.5266 36.8077 21.7663 37.3876C22.0061 37.9675 22.6706 38.2433 23.2505 38.0035L23.5573 37.8767L24.3194 37.5616L24.6262 37.4348C25.2061 37.195 25.4819 36.5306 25.2421 35.9506C25.0024 35.3707 24.3379 35.095 23.758 35.3347L23.4512 35.4615ZM23.1527 35.8188C22.9881 36.1217 22.9565 36.4935 23.0985 36.8369C23.2404 37.1803 23.5253 37.4213 23.8558 37.5194C24.0204 37.2166 24.052 36.8447 23.91 36.5014C23.7681 36.158 23.4831 35.917 23.1527 35.8188ZM15.1647 17.5762L15.9269 17.2611L16.2337 17.1343C16.8136 16.8945 17.4781 17.1703 17.7178 17.7502C17.9576 18.3301 17.6818 18.9946 17.1019 19.2343L16.7951 19.3612L16.033 19.6763L15.7262 19.8031C15.1462 20.0429 14.4818 19.7671 14.242 19.1872C14.0023 18.6073 14.278 17.9428 14.8579 17.703L15.1647 17.5762ZM15.5741 18.6365C15.4322 18.2931 15.4637 17.9212 15.6284 17.6184C15.9588 17.7166 16.2437 17.9575 16.3857 18.3009C16.5277 18.6443 16.4961 19.0161 16.3315 19.319C16.001 19.2208 15.7161 18.9798 15.5741 18.6365Z" fill="#3A2635"/>
<path d="M35.2284 32.7286L33.4519 34.9315C31.7999 36.98 28.5595 36.5239 27.5372 34.0989L19.1046 14.0961C18.5807 12.8532 18.8222 11.4194 19.7246 10.4168L21.7806 8.13239C23.4994 6.22252 26.6244 6.77052 27.5908 9.1513L35.7439 29.2356C36.2194 30.4071 36.0221 31.7444 35.2284 32.7286Z" fill="#3A2635"/>
<path d="M17.9771 11.5223L10.9922 14.4774L17.1712 9.37305L23.8875 5.34326L17.9771 11.5223Z" fill="#3A2635"/>
</svg>
