<svg width="16" height="16" viewBox="0 0 16 16" fill="none" xmlns="http://www.w3.org/2000/svg">
<path d="M7.99992 12.7999C6.33325 12.7999 4.85992 11.9466 3.99992 10.6666C4.01992 9.33325 6.66659 8.59992 7.99992 8.59992C9.33325 8.59992 11.9799 9.33325 11.9999 10.6666C11.5592 11.3229 10.9638 11.8607 10.2663 12.2327C9.56876 12.6047 8.79045 12.7995 7.99992 12.7999ZM7.99992 3.33325C8.53035 3.33325 9.03906 3.54397 9.41413 3.91904C9.78921 4.29411 9.99992 4.80282 9.99992 5.33325C9.99992 5.86369 9.78921 6.37239 9.41413 6.74747C9.03906 7.12254 8.53035 7.33325 7.99992 7.33325C7.46949 7.33325 6.96078 7.12254 6.5857 6.74747C6.21063 6.37239 5.99992 5.86369 5.99992 5.33325C5.99992 4.80282 6.21063 4.29411 6.5857 3.91904C6.96078 3.54397 7.46949 3.33325 7.99992 3.33325ZM7.99992 1.33325C7.12444 1.33325 6.25753 1.50569 5.4487 1.84072C4.63986 2.17575 3.90493 2.66682 3.28587 3.28587C2.03563 4.53612 1.33325 6.23181 1.33325 7.99992C1.33325 9.76803 2.03563 11.4637 3.28587 12.714C3.90493 13.333 4.63986 13.8241 5.4487 14.1591C6.25753 14.4941 7.12444 14.6666 7.99992 14.6666C9.76803 14.6666 11.4637 13.9642 12.714 12.714C13.9642 11.4637 14.6666 9.76803 14.6666 7.99992C14.6666 4.31325 11.6666 1.33325 7.99992 1.33325Z" fill="white"/>
</svg>
