<svg width="24" height="24" viewBox="0 0 24 24" fill="none" xmlns="http://www.w3.org/2000/svg">
<g filter="url(#filter0_d_30824_3639)">
<path fill-rule="evenodd" clip-rule="evenodd" d="M11.6153 6.60143V19.0139C11.2829 18.8616 11.1638 18.5633 11.1469 18.5013L11.1193 18.4514L11.1192 18.4512C11.0713 18.3649 11.0268 18.2846 10.9835 18.2099C10.6009 17.5488 10.3188 17.3272 8.76626 17.3272C7.65167 17.3272 6.43369 17.6749 5.34219 18.1887C4.91166 18.3915 4.50094 18.62 4.12384 18.8633L4.12318 18.8637C2.87722 19.6677 2 20.2337 2 19.4144V7.54375C2.18761 7.59478 2.40753 7.59028 2.65232 7.54375C3.38578 7.40416 4.34319 6.88684 5.32764 6.35477C6.5598 5.68887 7.83449 5 8.76626 5C10.2125 5 11.1688 5.80647 11.5781 6.53288C11.591 6.55579 11.6035 6.57871 11.6153 6.60143ZM12.3845 6.60177V19.014H12.3846C12.7171 18.8617 12.8362 18.5633 12.8531 18.5013C13.4612 17.3272 13.4722 17.3272 15.2337 17.3272C16.788 17.3272 18.5431 18.0031 19.8762 18.8633L19.8768 18.8637C21.1228 19.6677 22 20.2337 22 19.4144V7.54375C21.8911 7.57337 21.7713 7.58422 21.642 7.57914C21.5486 7.57542 21.4503 7.5633 21.3477 7.54375C20.6142 7.40416 19.6568 6.88684 18.6724 6.35477C17.4402 5.68887 16.1655 5 15.2337 5C13.7875 5 12.8312 5.80647 12.4219 6.53288C12.4089 6.55585 12.3964 6.57882 12.3846 6.6016C12.3846 6.60165 12.3846 6.60171 12.3845 6.60177ZM2.25334 19.0178C2.25362 19.0174 2.25907 19.016 2.26893 19.0151C2.25804 19.0178 2.25306 19.0183 2.25334 19.0178ZM21.7467 19.0178C21.7468 19.0183 21.742 19.0178 21.7311 19.0151C21.7409 19.016 21.7464 19.0174 21.7467 19.0178Z" fill="url(#paint0_linear_30824_3639)"/>
</g>
<defs>
<filter id="filter0_d_30824_3639" x="0.518519" y="4.62963" width="22.963" height="17.7778" filterUnits="userSpaceOnUse" color-interpolation-filters="sRGB">
<feFlood flood-opacity="0" result="BackgroundImageFix"/>
<feColorMatrix in="SourceAlpha" type="matrix" values="0 0 0 0 0 0 0 0 0 0 0 0 0 0 0 0 0 0 127 0" result="hardAlpha"/>
<feOffset dy="1.11111"/>
<feGaussianBlur stdDeviation="0.74074"/>
<feComposite in2="hardAlpha" operator="out"/>
<feColorMatrix type="matrix" values="0 0 0 0 0 0 0 0 0 0 0 0 0 0 0 0 0 0 0.45 0"/>
<feBlend mode="normal" in2="BackgroundImageFix" result="effect1_dropShadow_30824_3639"/>
<feBlend mode="normal" in="SourceGraphic" in2="effect1_dropShadow_30824_3639" result="shape"/>
</filter>
<linearGradient id="paint0_linear_30824_3639" x1="12" y1="5" x2="12" y2="19.8148" gradientUnits="userSpaceOnUse">
<stop stop-color="#FFF0D4"/>
<stop offset="0.421875" stop-color="#FFDEA3"/>
</linearGradient>
</defs>
</svg>
