<svg width="25" height="24" viewBox="0 0 25 24" fill="none" xmlns="http://www.w3.org/2000/svg">
<g id="material-symbols:download-rounded">
<g id="Vector" filter="url(#filter0_d_30704_6573)">
<path d="M12.5 15.575C12.3667 15.575 12.2417 15.5543 12.125 15.513C12.0083 15.4717 11.9 15.4007 11.8 15.3L8.2 11.7C8.01667 11.5167 7.925 11.2833 7.925 11C7.925 10.7167 8.01667 10.4833 8.2 10.3C8.38333 10.1167 8.621 10.021 8.913 10.013C9.205 10.005 9.44234 10.0923 9.625 10.275L11.5 12.15V5C11.5 4.71667 11.596 4.479 11.788 4.287C11.98 4.095 12.2173 3.99934 12.5 4C12.7833 4 13.021 4.096 13.213 4.288C13.405 4.48 13.5007 4.71734 13.5 5V12.15L15.375 10.275C15.5583 10.0917 15.796 10.004 16.088 10.012C16.38 10.02 16.6173 10.116 16.8 10.3C16.9833 10.4833 17.075 10.7167 17.075 11C17.075 11.2833 16.9833 11.5167 16.8 11.7L13.2 15.3C13.1 15.4 12.9917 15.471 12.875 15.513C12.7583 15.555 12.6333 15.5757 12.5 15.575ZM6.5 20C5.95 20 5.479 19.804 5.087 19.412C4.695 19.02 4.49934 18.5493 4.5 18V16C4.5 15.7167 4.596 15.479 4.788 15.287C4.98 15.095 5.21733 14.9993 5.5 15C5.78333 15 6.021 15.096 6.213 15.288C6.405 15.48 6.50067 15.7173 6.5 16V18H18.5V16C18.5 15.7167 18.596 15.479 18.788 15.287C18.98 15.095 19.2173 14.9993 19.5 15C19.7833 15 20.021 15.096 20.213 15.288C20.405 15.48 20.5007 15.7173 20.5 16V18C20.5 18.55 20.304 19.021 19.912 19.413C19.52 19.805 19.0493 20.0007 18.5 20H6.5Z" fill="url(#paint0_linear_30704_6573)"/>
</g>
</g>
<defs>
<filter id="filter0_d_30704_6573" x="3.01852" y="3.62963" width="18.963" height="18.963" filterUnits="userSpaceOnUse" color-interpolation-filters="sRGB">
<feFlood flood-opacity="0" result="BackgroundImageFix"/>
<feColorMatrix in="SourceAlpha" type="matrix" values="0 0 0 0 0 0 0 0 0 0 0 0 0 0 0 0 0 0 127 0" result="hardAlpha"/>
<feOffset dy="1.11111"/>
<feGaussianBlur stdDeviation="0.74074"/>
<feComposite in2="hardAlpha" operator="out"/>
<feColorMatrix type="matrix" values="0 0 0 0 0 0 0 0 0 0 0 0 0 0 0 0 0 0 0.45 0"/>
<feBlend mode="normal" in2="BackgroundImageFix" result="effect1_dropShadow_30704_6573"/>
<feBlend mode="normal" in="SourceGraphic" in2="effect1_dropShadow_30704_6573" result="shape"/>
</filter>
<linearGradient id="paint0_linear_30704_6573" x1="12.5" y1="4" x2="12.5" y2="20" gradientUnits="userSpaceOnUse">
<stop stop-color="#FFF0D4"/>
<stop offset="0.421875" stop-color="#FFDEA3"/>
</linearGradient>
</defs>
</svg>
