<svg width="32" height="33" viewBox="0 0 32 33" fill="none" xmlns="http://www.w3.org/2000/svg">
<rect y="0.499969" width="32" height="32" rx="16" fill="#AF4141"/>
<path d="M16.0003 21.8L12.3003 24.625C12.117 24.775 11.917 24.846 11.7003 24.838C11.4836 24.83 11.292 24.7673 11.1253 24.65C10.9586 24.5333 10.8296 24.375 10.7383 24.175C10.647 23.975 10.6426 23.7583 10.7253 23.525L12.1503 18.9L8.52531 16.325C8.32531 16.1916 8.20031 16.0166 8.15031 15.8C8.10031 15.5833 8.10864 15.3833 8.17531 15.2C8.24197 15.0166 8.35864 14.854 8.52531 14.712C8.69197 14.57 8.89197 14.4993 9.12531 14.5H13.6003L15.0503 9.69998C15.1336 9.46665 15.263 9.28731 15.4383 9.16198C15.6136 9.03665 15.801 8.97431 16.0003 8.97498C16.2003 8.97498 16.388 9.03765 16.5633 9.16298C16.7386 9.28831 16.8676 9.46731 16.9503 9.69998L18.4003 14.5H22.8753C23.1086 14.5 23.3086 14.571 23.4753 14.713C23.642 14.855 23.7586 15.0173 23.8253 15.2C23.892 15.3833 23.9003 15.5833 23.8503 15.8C23.8003 16.0166 23.6753 16.1916 23.4753 16.325L19.8503 18.9L21.2753 23.525C21.3586 23.7583 21.3546 23.975 21.2633 24.175C21.172 24.375 21.0426 24.5333 20.8753 24.65C20.7086 24.7666 20.517 24.8293 20.3003 24.838C20.0836 24.8466 19.8836 24.7756 19.7003 24.625L16.0003 21.8Z" fill="white"/>
</svg>
