<svg width="25" height="24" viewBox="0 0 25 24" fill="none" xmlns="http://www.w3.org/2000/svg">
<g id="material-symbols:refresh-rounded">
<g id="Vector" filter="url(#filter0_d_30704_6643)">
<path d="M12.5 20C10.2667 20 8.375 19.225 6.825 17.675C5.275 16.125 4.5 14.2333 4.5 12C4.5 9.76667 5.275 7.875 6.825 6.325C8.375 4.775 10.2667 4 12.5 4C13.65 4 14.75 4.23734 15.8 4.712C16.85 5.18667 17.75 5.866 18.5 6.75V5C18.5 4.71667 18.596 4.479 18.788 4.287C18.98 4.095 19.2173 3.99934 19.5 4C19.7833 4 20.021 4.096 20.213 4.288C20.405 4.48 20.5007 4.71734 20.5 5V10C20.5 10.2833 20.404 10.521 20.212 10.713C20.02 10.905 19.7827 11.0007 19.5 11H14.5C14.2167 11 13.979 10.904 13.787 10.712C13.595 10.52 13.4993 10.2827 13.5 10C13.5 9.71667 13.596 9.479 13.788 9.287C13.98 9.095 14.2173 8.99934 14.5 9H17.7C17.1667 8.06667 16.4373 7.33334 15.512 6.8C14.5867 6.26667 13.5827 6 12.5 6C10.8333 6 9.41667 6.58334 8.25 7.75C7.08333 8.91667 6.5 10.3333 6.5 12C6.5 13.6667 7.08333 15.0833 8.25 16.25C9.41667 17.4167 10.8333 18 12.5 18C13.6333 18 14.671 17.7123 15.613 17.137C16.555 16.5617 17.284 15.791 17.8 14.825C17.9333 14.5917 18.121 14.4293 18.363 14.338C18.605 14.2467 18.8507 14.2423 19.1 14.325C19.3667 14.4083 19.5583 14.5833 19.675 14.85C19.7917 15.1167 19.7833 15.3667 19.65 15.6C18.9667 16.9333 17.9917 18 16.725 18.8C15.4583 19.6 14.05 20 12.5 20Z" fill="url(#paint0_linear_30704_6643)"/>
</g>
</g>
<defs>
<filter id="filter0_d_30704_6643" x="3.01852" y="3.62963" width="18.963" height="18.963" filterUnits="userSpaceOnUse" color-interpolation-filters="sRGB">
<feFlood flood-opacity="0" result="BackgroundImageFix"/>
<feColorMatrix in="SourceAlpha" type="matrix" values="0 0 0 0 0 0 0 0 0 0 0 0 0 0 0 0 0 0 127 0" result="hardAlpha"/>
<feOffset dy="1.11111"/>
<feGaussianBlur stdDeviation="0.74074"/>
<feComposite in2="hardAlpha" operator="out"/>
<feColorMatrix type="matrix" values="0 0 0 0 0 0 0 0 0 0 0 0 0 0 0 0 0 0 0.45 0"/>
<feBlend mode="normal" in2="BackgroundImageFix" result="effect1_dropShadow_30704_6643"/>
<feBlend mode="normal" in="SourceGraphic" in2="effect1_dropShadow_30704_6643" result="shape"/>
</filter>
<linearGradient id="paint0_linear_30704_6643" x1="12.5" y1="4" x2="12.5" y2="20" gradientUnits="userSpaceOnUse">
<stop stop-color="#FFF0D4"/>
<stop offset="0.421875" stop-color="#FFDEA3"/>
</linearGradient>
</defs>
</svg>
