<svg width="12" height="14" viewBox="0 0 12 14" fill="none" xmlns="http://www.w3.org/2000/svg">
<path d="M5.99996 13.6C5.92218 13.6 5.84996 13.5945 5.78329 13.5834C5.71663 13.5722 5.64996 13.5556 5.58329 13.5333C4.08329 13.0333 2.88885 12.1085 1.99996 10.7587C1.11107 9.40891 0.666626 7.95602 0.666626 6.40002V3.25002C0.666626 2.97224 0.747293 2.72224 0.908626 2.50002C1.06996 2.27779 1.27818 2.11668 1.53329 2.01668L5.53329 0.516683C5.68885 0.461127 5.8444 0.43335 5.99996 0.43335C6.15552 0.43335 6.31107 0.461127 6.46663 0.516683L10.4666 2.01668C10.7222 2.11668 10.9306 2.27779 11.092 2.50002C11.2533 2.72224 11.3337 2.97224 11.3333 3.25002V6.40002C11.3333 7.95557 10.8888 9.40846 9.99996 10.7587C9.11107 12.1089 7.91663 13.0338 6.41663 13.5333C6.34996 13.5556 6.28329 13.5722 6.21663 13.5834C6.14996 13.5945 6.07774 13.6 5.99996 13.6Z" fill="white"/>
</svg>
