<svg width="24" height="24" viewBox="0 0 24 24" fill="none" xmlns="http://www.w3.org/2000/svg">
<circle cx="12" cy="12" r="12" fill="#B19D7C"/>
<path d="M12.0003 18.6C11.9225 18.6 11.8503 18.5944 11.7837 18.5833C11.717 18.5722 11.6503 18.5555 11.5837 18.5333C10.0837 18.0333 8.88921 17.1084 8.00033 15.7587C7.11144 14.4089 6.66699 12.956 6.66699 11.4V8.24999C6.66699 7.97221 6.74766 7.72221 6.90899 7.49999C7.07033 7.27776 7.27855 7.11665 7.53366 7.01665L11.5337 5.51665C11.6892 5.4611 11.8448 5.43332 12.0003 5.43332C12.1559 5.43332 12.3114 5.4611 12.467 5.51665L16.467 7.01665C16.7225 7.11665 16.931 7.27776 17.0923 7.49999C17.2537 7.72221 17.3341 7.97221 17.3337 8.24999V11.4C17.3337 12.9555 16.8892 14.4084 16.0003 15.7587C15.1114 17.1089 13.917 18.0338 12.417 18.5333C12.3503 18.5555 12.2837 18.5722 12.217 18.5833C12.1503 18.5944 12.0781 18.6 12.0003 18.6Z" fill="white"/>
</svg>
