<svg width="12" height="14" viewBox="0 0 12 14" fill="none" xmlns="http://www.w3.org/2000/svg">
<path d="M5.99935 13.5998C5.92157 13.5998 5.84935 13.5942 5.78268 13.5831C5.71602 13.572 5.64935 13.5553 5.58268 13.5331C4.08268 13.0331 2.88824 12.1082 1.99935 10.7584C1.11046 9.40866 0.666016 7.95577 0.666016 6.39977V3.24977C0.666016 2.97199 0.746682 2.72199 0.908016 2.49977C1.06935 2.27755 1.27757 2.11644 1.53268 2.01644L5.53268 0.516439C5.68824 0.460883 5.84379 0.433105 5.99935 0.433105C6.1549 0.433105 6.31046 0.460883 6.46602 0.516439L10.466 2.01644C10.7216 2.11644 10.93 2.27755 11.0913 2.49977C11.2527 2.72199 11.3331 2.97199 11.3327 3.24977V6.39977C11.3327 7.95533 10.8882 9.40822 9.99935 10.7584C9.11046 12.1087 7.91602 13.0336 6.41602 13.5331C6.34935 13.5553 6.28268 13.572 6.21602 13.5831C6.14935 13.5942 6.07713 13.5998 5.99935 13.5998Z" fill="white"/>
</svg>
