<svg width="24" height="24" viewBox="0 0 24 24" fill="none" xmlns="http://www.w3.org/2000/svg">
<path d="M6.00012 22C5.45012 22 4.97912 21.804 4.58712 21.412C4.19512 21.02 3.99946 20.5493 4.00012 20V8C4.00012 7.45 4.19612 6.979 4.58812 6.587C4.98012 6.195 5.45079 5.99933 6.00012 6H8.00012C8.00012 4.9 8.39179 3.95833 9.17512 3.175C9.95846 2.39167 10.9001 2 12.0001 2C13.1001 2 14.0418 2.39167 14.8251 3.175C15.6085 3.95833 16.0001 4.9 16.0001 6H18.0001C18.5501 6 19.0211 6.196 19.4131 6.588C19.8051 6.98 20.0008 7.45067 20.0001 8V20C20.0001 20.55 19.8041 21.021 19.4121 21.413C19.0201 21.805 18.5495 22.0007 18.0001 22H6.00012ZM10.0001 6H14.0001C14.0001 5.45 13.8041 4.979 13.4121 4.587C13.0201 4.195 12.5495 3.99933 12.0001 4C11.4501 4 10.9791 4.196 10.5871 4.588C10.1951 4.98 9.99946 5.45067 10.0001 6ZM15.0001 11C15.2835 11 15.5211 10.904 15.7131 10.712C15.9051 10.52 16.0008 10.2827 16.0001 10V8H14.0001V10C14.0001 10.2833 14.0961 10.521 14.2881 10.713C14.4801 10.905 14.7175 11.0007 15.0001 11ZM9.00012 11C9.28346 11 9.52112 10.904 9.71312 10.712C9.90512 10.52 10.0008 10.2827 10.0001 10V8H8.00012V10C8.00012 10.2833 8.09612 10.521 8.28812 10.713C8.48012 10.905 8.71746 11.0007 9.00012 11Z" fill="white"/>
<path d="M6.00012 22C5.45012 22 4.97912 21.804 4.58712 21.412C4.19512 21.02 3.99946 20.5493 4.00012 20V8C4.00012 7.45 4.19612 6.979 4.58812 6.587C4.98012 6.195 5.45079 5.99933 6.00012 6H8.00012C8.00012 4.9 8.39179 3.95833 9.17512 3.175C9.95846 2.39167 10.9001 2 12.0001 2C13.1001 2 14.0418 2.39167 14.8251 3.175C15.6085 3.95833 16.0001 4.9 16.0001 6H18.0001C18.5501 6 19.0211 6.196 19.4131 6.588C19.8051 6.98 20.0008 7.45067 20.0001 8V20C20.0001 20.55 19.8041 21.021 19.4121 21.413C19.0201 21.805 18.5495 22.0007 18.0001 22H6.00012ZM10.0001 6H14.0001C14.0001 5.45 13.8041 4.979 13.4121 4.587C13.0201 4.195 12.5495 3.99933 12.0001 4C11.4501 4 10.9791 4.196 10.5871 4.588C10.1951 4.98 9.99946 5.45067 10.0001 6ZM15.0001 11C15.2835 11 15.5211 10.904 15.7131 10.712C15.9051 10.52 16.0008 10.2827 16.0001 10V8H14.0001V10C14.0001 10.2833 14.0961 10.521 14.2881 10.713C14.4801 10.905 14.7175 11.0007 15.0001 11ZM9.00012 11C9.28346 11 9.52112 10.904 9.71312 10.712C9.90512 10.52 10.0008 10.2827 10.0001 10V8H8.00012V10C8.00012 10.2833 8.09612 10.521 8.28812 10.713C8.48012 10.905 8.71746 11.0007 9.00012 11Z" fill="url(#paint0_linear_30824_3634)"/>
<defs>
<linearGradient id="paint0_linear_30824_3634" x1="12.0001" y1="2" x2="12.0001" y2="22" gradientUnits="userSpaceOnUse">
<stop stop-color="#FFF0D4"/>
<stop offset="0.421875" stop-color="#FFDEA3"/>
</linearGradient>
</defs>
</svg>
