<svg width="25" height="24" viewBox="0 0 25 24" fill="none" xmlns="http://www.w3.org/2000/svg">
<circle cx="12.5" cy="12" r="12" fill="#8C9091"/>
<path d="M7.23438 13.3333C7.23438 12.1667 7.51215 11.1278 8.06771 10.2167C8.62326 9.30556 9.23438 8.53889 9.90104 7.91667C10.5677 7.29444 11.1788 6.81933 11.7344 6.49133L12.5677 6V8.2C12.5677 8.61111 12.7066 8.936 12.9844 9.17467C13.2622 9.41333 13.5733 9.53289 13.9177 9.53333C14.1066 9.53333 14.2873 9.49444 14.4597 9.41667C14.6322 9.33889 14.7904 9.21111 14.9344 9.03333L15.2344 8.66667C16.0344 9.13333 16.6788 9.78044 17.1677 10.608C17.6566 11.4356 17.901 12.344 17.901 13.3333C17.901 14.3111 17.6622 15.2029 17.1844 16.0087C16.7066 16.8144 16.0788 17.4502 15.301 17.916C15.4899 17.6493 15.6373 17.3576 15.743 17.0407C15.8488 16.7238 15.9015 16.388 15.901 16.0333C15.901 15.5889 15.8177 15.1693 15.651 14.7747C15.4844 14.38 15.2455 14.0273 14.9344 13.7167L12.5677 11.4L10.2177 13.7167C9.89549 14.0389 9.65104 14.3944 9.48438 14.7833C9.31771 15.1722 9.23438 15.5889 9.23438 16.0333C9.23438 16.3889 9.28726 16.7251 9.39304 17.042C9.49882 17.3589 9.64593 17.6504 9.83438 17.9167C9.0566 17.45 8.42882 16.8138 7.95104 16.008C7.47326 15.2022 7.23438 14.3107 7.23438 13.3333ZM12.5677 13.2667L13.9844 14.65C14.1733 14.8389 14.3177 15.05 14.4177 15.2833C14.5177 15.5167 14.5677 15.7667 14.5677 16.0333C14.5677 16.5778 14.3733 17.0416 13.9844 17.4247C13.5955 17.8078 13.1233 17.9996 12.5677 18C12.0122 18 11.5399 17.8082 11.151 17.4247C10.7622 17.0411 10.5677 16.5773 10.5677 16.0333C10.5677 15.7778 10.6177 15.5304 10.7177 15.2913C10.8177 15.0522 10.9622 14.8384 11.151 14.65L12.5677 13.2667Z" fill="white"/>
</svg>
