<svg width="17" height="16" viewBox="0 0 17 16" fill="none" xmlns="http://www.w3.org/2000/svg">
<path d="M5.8768 10.4898C6.04014 10.6051 6.2348 10.6664 6.43414 10.6658V10.6631C6.62233 10.6635 6.80649 10.6086 6.96377 10.5053C7.12104 10.4019 7.24449 10.2547 7.3188 10.0818L7.72747 8.8391C7.8218 8.55756 7.98037 8.30184 8.19061 8.09218C8.40085 7.88251 8.65701 7.72465 8.9388 7.6311L10.1241 7.24576C10.3154 7.17902 10.4807 7.05355 10.5964 6.88727C10.7122 6.721 10.7724 6.52242 10.7685 6.31987C10.7647 6.11733 10.697 5.92117 10.575 5.75941C10.4531 5.59765 10.2831 5.47854 10.0895 5.4191L8.91947 5.0391C8.63645 4.94492 8.37929 4.78603 8.16843 4.57506C7.95757 4.36409 7.79882 4.10684 7.7048 3.82376L7.31947 2.6391C7.25227 2.45041 7.12796 2.28735 6.96383 2.17256C6.79969 2.05777 6.60387 1.99695 6.40359 1.99857C6.2033 2.00018 6.00849 2.06414 5.84622 2.18156C5.68395 2.29898 5.56229 2.46402 5.49814 2.65376L5.10947 3.84843C5.01575 4.12327 4.86084 4.37325 4.65644 4.5795C4.45203 4.78576 4.20346 4.94291 3.92947 5.0391L2.7448 5.4191C2.55467 5.48489 2.38992 5.6086 2.27372 5.77285C2.15751 5.9371 2.09569 6.13363 2.09694 6.33483C2.09819 6.53602 2.16245 6.73177 2.28069 6.89456C2.39892 7.05735 2.5652 7.17901 2.75614 7.24243L3.92547 7.62176C4.20846 7.7166 4.46551 7.87595 4.67632 8.08723C4.88713 8.2985 5.04592 8.5559 5.14014 8.8391L5.52547 10.0224C5.59147 10.2111 5.71414 10.3744 5.8768 10.4898ZM10.9881 13.8544C10.861 13.7637 10.7654 13.6355 10.7148 13.4878L10.4961 12.8171C10.4541 12.6892 10.3827 12.573 10.2877 12.4777C10.1926 12.3824 10.0766 12.3108 9.9488 12.2684L9.28814 12.0531C9.1369 12.0021 9.0054 11.905 8.91204 11.7756C8.81868 11.6461 8.76813 11.4907 8.76747 11.3311C8.76748 11.1725 8.81702 11.0179 8.90917 10.8888C9.00131 10.7597 9.13148 10.6626 9.28147 10.6111L9.95214 10.3938C10.0769 10.3494 10.1898 10.2771 10.2823 10.1823C10.3747 10.0876 10.4442 9.9729 10.4855 9.8471L10.7015 9.18643C10.7523 9.03694 10.8483 8.90692 10.9762 8.81436C11.1041 8.72179 11.2576 8.67125 11.4155 8.66971C11.5734 8.66818 11.7279 8.71572 11.8575 8.80578C11.9872 8.89584 12.0858 9.02396 12.1395 9.17243L12.3588 9.84843C12.4017 9.97518 12.4734 10.0903 12.5682 10.1846C12.6631 10.279 12.7785 10.3502 12.9055 10.3924L13.5668 10.6078C13.7193 10.6554 13.8528 10.7499 13.9486 10.8778C14.0443 11.0056 14.0974 11.1603 14.1003 11.3201C14.1032 11.4798 14.0557 11.6363 13.9646 11.7675C13.8735 11.8987 13.7434 11.998 13.5928 12.0511L12.9168 12.2704C12.7897 12.3133 12.6743 12.3852 12.5796 12.4803C12.485 12.5753 12.4138 12.6911 12.3715 12.8184L12.1568 13.4778C12.1048 13.6311 12.0061 13.7644 11.8735 13.8578C11.744 13.9498 11.5891 13.9989 11.4303 13.9983C11.2715 13.9977 11.1169 13.9474 10.9881 13.8544Z" fill="white"/>
</svg>
