<svg width="24" height="24" viewBox="0 0 24 24" fill="none" xmlns="http://www.w3.org/2000/svg">
<path fill-rule="evenodd" clip-rule="evenodd" d="M9.95051 20H16.1614L16.5344 20L16.5344 18.031H14.7952C14.1777 18.031 13.6771 17.5351 13.6771 16.9233V15.6926C13.6771 15.0808 14.1777 14.5849 14.7952 14.5849H16.5344V12.8617C16.5344 12.4756 16.7337 12.1357 17.036 11.9374C16.6568 9.12943 16.2725 6.52042 16.1614 5.89865C15.9088 4.48503 15.8899 4.48528 15.2852 4.49327C15.2362 4.49392 15.1834 4.49462 15.1263 4.49462H9.95042V4.49476H4.77466C4.71756 4.49476 4.66474 4.49406 4.61576 4.49342C4.01101 4.48542 3.99208 4.48517 3.73948 5.8988C3.47625 7.37192 1.67958 20.0002 2.05013 20.0002L3.73948 20.0002H9.95051V20ZM6.13107 5.0818L6.13107 5.08181V5.08182C6.12361 5.94188 6.10913 7.61119 6.45601 9.13125C6.65136 9.98729 6.97324 10.8564 7.52259 11.5214C8.08046 12.1967 8.86055 12.6433 9.89265 12.6594V12.6599L9.92171 12.6597L9.95077 12.6599V12.6594C10.9829 12.6433 11.763 12.1967 12.3208 11.5214C12.8702 10.8564 13.1921 9.98729 13.3874 9.13125C13.7343 7.61119 13.7198 5.94187 13.7124 5.08181V5.08176V5.08171V5.08166C13.7114 4.97462 13.7106 4.88012 13.7106 4.80001H12.5263C12.5263 4.88868 12.5271 4.9895 12.5279 5.10082L12.5279 5.10094C12.5345 5.97467 12.546 7.49531 12.2328 8.86777C12.0566 9.64011 11.7894 10.3052 11.4078 10.7671C11.0503 11.1999 10.5846 11.4678 9.92171 11.4754C9.25878 11.4678 8.79312 11.1999 8.43563 10.7671C8.054 10.3052 7.78686 9.64011 7.6106 8.86777C7.29741 7.49531 7.30889 5.97467 7.31549 5.10094L7.31549 5.10082C7.31634 4.9895 7.3171 4.88868 7.3171 4.80001H6.13282C6.13282 4.88013 6.132 4.97464 6.13107 5.08169V5.08174V5.0818Z" fill="#FFD69D"/>
<path d="M6.22266 4.73845C6.22266 3.75385 7.21647 3.75385 7.21647 4.73847" stroke="#FFD69D" stroke-width="1.20002"/>
<path d="M12.5586 4.73845C12.5586 3.75385 13.5524 3.75385 13.5524 4.73847" stroke="#FFD69D" stroke-width="1.20002"/>
<path fill-rule="evenodd" clip-rule="evenodd" d="M17.7001 12.6157C17.5366 12.6157 17.404 12.7483 17.404 12.9118V15.4467H14.8429C14.6794 15.4467 14.5469 15.5792 14.5469 15.7428L14.5469 16.8737C14.5469 17.0372 14.6794 17.1698 14.8429 17.1698H17.404V19.7043C17.404 19.8679 17.5366 20.0004 17.7001 20.0004H18.8471C19.0106 20.0004 19.1432 19.8679 19.1432 19.7043V17.1698H21.7044C21.8679 17.1698 22.0005 17.0372 22.0005 16.8737V15.7428C22.0005 15.5792 21.8679 15.4467 21.7044 15.4467H19.1432V12.9118C19.1432 12.7483 19.0106 12.6157 18.8471 12.6157H17.7001Z" fill="#FFD69D"/>
</svg>
