<svg width="24" height="24" viewBox="0 0 24 24" fill="none" xmlns="http://www.w3.org/2000/svg">
<path fill-rule="evenodd" clip-rule="evenodd" d="M6.16457 4.646C6.16457 4.71855 6.16375 4.80444 6.16281 4.90198C6.15527 5.68725 6.14049 7.22694 6.49053 8.62968C6.68816 9.42164 7.01465 10.2282 7.57143 10.8445C8.13567 11.4692 8.9116 11.8691 9.92444 11.8838V11.8842C9.93413 11.8842 9.9438 11.8842 9.95345 11.8841C9.9631 11.8842 9.97277 11.8842 9.98246 11.8842V11.8838C10.9953 11.8691 11.7712 11.4692 12.3355 10.8445C12.8922 10.2282 13.2187 9.42164 13.4164 8.62968C13.7664 7.22694 13.7516 5.68725 13.7441 4.90198V4.90191C13.7432 4.8044 13.7423 4.71853 13.7423 4.646H12.5581C12.5581 4.72784 12.5588 4.8206 12.5597 4.92277V4.92279V4.9228C12.5662 5.72282 12.5774 7.10042 12.2673 8.34295C12.0934 9.04009 11.8308 9.63647 11.4567 10.0507C11.1056 10.4393 10.6358 10.6928 9.95345 10.6998C9.27108 10.6928 8.80128 10.4393 8.45023 10.0507C8.07605 9.63647 7.81352 9.04009 7.63955 8.34295C7.32949 7.10041 7.34072 5.72282 7.34724 4.92279C7.34807 4.82061 7.34883 4.72785 7.34883 4.646H6.16457Z" fill="#FFD69D"/>
<path d="M6.22266 4.73844C6.22266 3.75385 7.21645 3.75385 7.21645 4.73846" stroke="#FFD69D" stroke-width="1.2"/>
<path d="M12.5586 4.73844C12.5586 3.75385 13.5524 3.75385 13.5524 4.73846" stroke="#FFD69D" stroke-width="1.2"/>
<path fill-rule="evenodd" clip-rule="evenodd" d="M17.7 12.6152C17.5365 12.6152 17.404 12.7478 17.404 12.9113V15.4461H14.8429C14.6794 15.4461 14.5469 15.5787 14.5469 15.7422L14.5469 16.8731C14.5469 17.0367 14.6794 17.1692 14.8429 17.1692H17.404V19.7037C17.404 19.8672 17.5365 19.9998 17.7 19.9998H18.8471C19.0106 19.9998 19.1431 19.8672 19.1431 19.7037V17.1692H21.7043C21.8678 17.1692 22.0004 17.0367 22.0004 16.8731V15.7422C22.0004 15.5787 21.8678 15.4461 21.7043 15.4461H19.1431V12.9113C19.1431 12.7478 19.0106 12.6152 18.8471 12.6152H17.7Z" fill="#FFD69D"/>
<path fill-rule="evenodd" clip-rule="evenodd" d="M4.14368 5.88537C4.20774 5.52695 4.25465 5.27183 4.29871 5.08469C4.33701 4.92199 4.3665 4.84245 4.38526 4.80477C4.42276 4.80026 4.48775 4.79939 4.62637 4.80122L4.62726 4.80123L4.62728 4.80123C4.67611 4.80188 4.73144 4.80261 4.79152 4.80261H4.79154H15.2077H15.2077C15.2678 4.80261 15.3231 4.80188 15.372 4.80123L15.3728 4.80122C15.5115 4.79939 15.5765 4.80026 15.614 4.80477C15.6327 4.84245 15.6622 4.92199 15.7005 5.08469C15.7446 5.27183 15.7915 5.52695 15.8555 5.88537C15.9613 6.47699 16.3206 8.9103 16.6864 11.6002H17.4938C17.1226 8.86503 16.7533 6.36116 16.6431 5.74461C16.58 5.39201 16.5293 5.1139 16.4792 4.90139C16.4311 4.69708 16.374 4.50648 16.2786 4.35688C16.1639 4.17691 16.006 4.0728 15.8162 4.02902C15.6764 3.99677 15.5167 3.99907 15.3876 4.00093L15.3623 4.00129C15.3128 4.00194 15.2621 4.00261 15.2077 4.00261H4.79155H4.79154C4.73709 4.00261 4.68645 4.00194 4.63694 4.00129L4.61158 4.00093C4.48247 3.99907 4.32284 3.99677 4.18301 4.02902C3.9932 4.0728 3.83527 4.17691 3.72058 4.35688C3.62525 4.50648 3.56808 4.69708 3.51999 4.90139C3.46997 5.1139 3.41918 5.39201 3.35616 5.74461C3.22184 6.49608 2.70257 10.0512 2.2642 13.4115C2.04482 15.0932 1.84489 16.7322 1.72309 17.9524C1.66231 18.5612 1.62027 19.0727 1.60551 19.4351C1.59823 19.6138 1.59692 19.7701 1.60596 19.8878C1.61016 19.9425 1.61825 20.0146 1.63949 20.0827C1.6495 20.1148 1.67135 20.1763 1.71896 20.2372C1.77102 20.3039 1.88121 20.4002 2.05005 20.4002H16.3996V19.6002H2.40065C2.40149 19.5602 2.40287 19.5161 2.40484 19.4677C2.41862 19.1296 2.45871 18.6372 2.51913 18.0319C2.63971 16.8239 2.83839 15.1945 3.05748 13.515C3.49604 10.1533 4.01313 6.61577 4.14368 5.88537Z" fill="#FFD69D"/>
</svg>
