<svg width="14" height="14" viewBox="0 0 14 14" fill="none" xmlns="http://www.w3.org/2000/svg">
<path d="M9.23333 12.3333L7.93333 13.6167C7.67778 13.8722 7.36667 14 7 14C6.63333 14 6.32222 13.8722 6.06667 13.6167L4.76667 12.3333H3C2.63333 12.3333 2.31933 12.2027 2.058 11.9413C1.79667 11.68 1.66622 11.3662 1.66667 11V9.23333L0.383333 7.93333C0.127778 7.67778 0 7.36667 0 7C0 6.63333 0.127778 6.32222 0.383333 6.06667L1.66667 4.76667V3C1.66667 2.63333 1.79733 2.31933 2.05867 2.058C2.32 1.79667 2.63378 1.66622 3 1.66667H4.76667L6.06667 0.383333C6.32222 0.127778 6.63333 0 7 0C7.36667 0 7.67778 0.127778 7.93333 0.383333L9.23333 1.66667H11C11.3667 1.66667 11.6807 1.79733 11.942 2.05867C12.2033 2.32 12.3338 2.63378 12.3333 3V4.76667L13.6167 6.06667C13.8722 6.32222 14 6.63333 14 7C14 7.36667 13.8722 7.67778 13.6167 7.93333L12.3333 9.23333V11C12.3333 11.3667 12.2027 11.6807 11.9413 11.942C11.68 12.2033 11.3662 12.3338 11 12.3333H9.23333ZM7 12.6667L8.66667 11H11V8.66667L12.6667 7L11 5.33333V3H8.66667L7 1.33333L5.33333 3H3V5.33333L1.33333 7L3 8.66667V11H5.33333L7 12.6667ZM7 8.65L8.26667 9.41667C8.38889 9.49444 8.51111 9.49156 8.63333 9.408C8.75556 9.32445 8.8 9.21067 8.76667 9.06667L8.43333 7.61667L9.56667 6.63333C9.67778 6.53333 9.71111 6.414 9.66667 6.27533C9.62222 6.13667 9.52222 6.06156 9.36667 6.05L7.88333 5.93333L7.3 4.56667C7.24444 4.43333 7.14444 4.36667 7 4.36667C6.85556 4.36667 6.75556 4.43333 6.7 4.56667L6.11667 5.93333L4.63333 6.05C4.47778 6.06111 4.37778 6.13622 4.33333 6.27533C4.28889 6.41444 4.32222 6.53378 4.43333 6.63333L5.56667 7.61667L5.23333 9.06667C5.2 9.21111 5.24444 9.32511 5.36667 9.40867C5.48889 9.49222 5.61111 9.49489 5.73333 9.41667L7 8.65Z" fill="white"/>
</svg>
