<svg width="24" height="24" viewBox="0 0 24 24" fill="none" xmlns="http://www.w3.org/2000/svg">
<mask id="path-1-inside-1_30726_3910" fill="white">
<path fill-rule="evenodd" clip-rule="evenodd" d="M4.66667 8.25C3.74619 8.25 3 8.99619 3 9.91667V20.3334C3 21.2538 3.74619 22 4.66667 22H19.6667C20.5872 22 21.3334 21.2538 21.3334 20.3334V9.91667C21.3334 8.99619 20.5872 8.25 19.6667 8.25H4.66667ZM17.7917 16.5834C18.5971 16.5834 19.25 15.9304 19.25 15.125C19.25 14.3196 18.5971 13.6667 17.7917 13.6667C16.9863 13.6667 16.3334 14.3196 16.3334 15.125C16.3334 15.9304 16.9863 16.5834 17.7917 16.5834Z"/>
</mask>
<path fill-rule="evenodd" clip-rule="evenodd" d="M4.66667 8.25C3.74619 8.25 3 8.99619 3 9.91667V20.3334C3 21.2538 3.74619 22 4.66667 22H19.6667C20.5872 22 21.3334 21.2538 21.3334 20.3334V9.91667C21.3334 8.99619 20.5872 8.25 19.6667 8.25H4.66667ZM17.7917 16.5834C18.5971 16.5834 19.25 15.9304 19.25 15.125C19.25 14.3196 18.5971 13.6667 17.7917 13.6667C16.9863 13.6667 16.3334 14.3196 16.3334 15.125C16.3334 15.9304 16.9863 16.5834 17.7917 16.5834Z" fill="#FFD69D"/>
<path d="M3.83334 9.91667C3.83334 9.45643 4.20643 9.08334 4.66667 9.08334V7.41666C3.28596 7.41666 2.16666 8.53595 2.16666 9.91667H3.83334ZM3.83334 20.3334V9.91667H2.16666V20.3334H3.83334ZM4.66667 21.1667C4.20643 21.1667 3.83334 20.7936 3.83334 20.3334H2.16666C2.16666 21.7141 3.28596 22.8334 4.66667 22.8334V21.1667ZM19.6667 21.1667H4.66667V22.8334H19.6667V21.1667ZM20.5 20.3334C20.5 20.7936 20.1269 21.1667 19.6667 21.1667V22.8334C21.0474 22.8334 22.1667 21.7141 22.1667 20.3334H20.5ZM20.5 9.91667V20.3334H22.1667V9.91667H20.5ZM19.6667 9.08334C20.1269 9.08334 20.5 9.45643 20.5 9.91667H22.1667C22.1667 8.53596 21.0474 7.41666 19.6667 7.41666V9.08334ZM4.66667 9.08334H19.6667V7.41666H4.66667V9.08334ZM18.4167 15.125C18.4167 15.4702 18.1369 15.75 17.7917 15.75V17.4167C19.0574 17.4167 20.0834 16.3907 20.0834 15.125H18.4167ZM17.7917 14.5C18.1369 14.5 18.4167 14.7798 18.4167 15.125H20.0834C20.0834 13.8594 19.0574 12.8333 17.7917 12.8333V14.5ZM17.1667 15.125C17.1667 14.7798 17.4465 14.5 17.7917 14.5V12.8333C16.526 12.8333 15.5 13.8594 15.5 15.125H17.1667ZM17.7917 15.75C17.4465 15.75 17.1667 15.4702 17.1667 15.125H15.5C15.5 16.3907 16.526 17.4167 17.7917 17.4167V15.75Z" fill="#FFD69D" mask="url(#path-1-inside-1_30726_3910)"/>
<path d="M6.03921 6.277L14.4911 4.01233L13.7801 2.74877C13.533 2.30935 12.9945 2.15355 12.5775 2.40077L6.03921 6.277Z" fill="#FFD69D"/>
<path d="M6.33398 7.35715H18.9266L18.4089 5.43094C18.229 4.76113 17.5385 4.36361 16.8668 4.5431L6.33398 7.35715Z" fill="#FFD69D"/>
</svg>
